<?xml version="1.0" encoding="UTF-8" standalone="no"?>
<!DOCTYPE svg PUBLIC "-//W3C//DTD SVG 1.1//EN"
 "http://www.w3.org/Graphics/SVG/1.1/DTD/svg11.dtd">
<!-- Generated by graphviz version 2.43.0 (0)
 -->
<!-- Title: G Pages: 1 -->
<svg width="2143pt" height="1236pt"
 viewBox="0.00 0.00 2143.20 1236.20" xmlns="http://www.w3.org/2000/svg" xmlns:xlink="http://www.w3.org/1999/xlink">
<g id="graph0" class="graph" transform="scale(1 1) rotate(0) translate(21.6 1214.6)">
<title>G</title>
<polygon fill="#111111" stroke="transparent" points="-21.6,21.6 -21.6,-1214.6 2121.6,-1214.6 2121.6,21.6 -21.6,21.6"/>
<!-- App.tsx -->
<g id="node1" class="node">
<title>App.tsx</title>
<path fill="none" stroke="#c6c5fe" d="M374.33,-326C374.33,-326 327.67,-326 327.67,-326 323.83,-326 320,-322.17 320,-318.33 320,-318.33 320,-310.67 320,-310.67 320,-306.83 323.83,-303 327.67,-303 327.67,-303 374.33,-303 374.33,-303 378.17,-303 382,-306.83 382,-310.67 382,-310.67 382,-318.33 382,-318.33 382,-322.17 378.17,-326 374.33,-326"/>
<text text-anchor="middle" x="351" y="-310.8" font-family="Arial" font-size="14.00" fill="#c6c5fe">App.tsx</text>
</g>
<!-- UI/pages/Auth/SignInPage.tsx -->
<g id="node2" class="node">
<title>UI/pages/Auth/SignInPage.tsx</title>
<path fill="none" stroke="#c6c5fe" d="M724.83,-142C724.83,-142 543.17,-142 543.17,-142 539.33,-142 535.5,-138.17 535.5,-134.33 535.5,-134.33 535.5,-126.67 535.5,-126.67 535.5,-122.83 539.33,-119 543.17,-119 543.17,-119 724.83,-119 724.83,-119 728.67,-119 732.5,-122.83 732.5,-126.67 732.5,-126.67 732.5,-134.33 732.5,-134.33 732.5,-138.17 728.67,-142 724.83,-142"/>
<text text-anchor="middle" x="634" y="-126.8" font-family="Arial" font-size="14.00" fill="#c6c5fe">UI/pages/Auth/SignInPage.tsx</text>
</g>
<!-- App.tsx&#45;&gt;UI/pages/Auth/SignInPage.tsx -->
<g id="edge1" class="edge">
<title>App.tsx&#45;&gt;UI/pages/Auth/SignInPage.tsx</title>
<path fill="none" stroke="#757575" d="M357,-302.85C370.96,-271.91 413.57,-187.56 478,-150.5 492.32,-142.27 508.59,-136.82 525.07,-133.29"/>
<polygon fill="#757575" stroke="#757575" points="526.18,-136.65 535.35,-131.34 524.87,-129.77 526.18,-136.65"/>
</g>
<!-- UI/pages/Auth/SingUpPage.tsx -->
<g id="node3" class="node">
<title>UI/pages/Auth/SingUpPage.tsx</title>
<path fill="none" stroke="#c6c5fe" d="M727.83,-183C727.83,-183 540.17,-183 540.17,-183 536.33,-183 532.5,-179.17 532.5,-175.33 532.5,-175.33 532.5,-167.67 532.5,-167.67 532.5,-163.83 536.33,-160 540.17,-160 540.17,-160 727.83,-160 727.83,-160 731.67,-160 735.5,-163.83 735.5,-167.67 735.5,-167.67 735.5,-175.33 735.5,-175.33 735.5,-179.17 731.67,-183 727.83,-183"/>
<text text-anchor="middle" x="634" y="-167.8" font-family="Arial" font-size="14.00" fill="#c6c5fe">UI/pages/Auth/SingUpPage.tsx</text>
</g>
<!-- App.tsx&#45;&gt;UI/pages/Auth/SingUpPage.tsx -->
<g id="edge2" class="edge">
<title>App.tsx&#45;&gt;UI/pages/Auth/SingUpPage.tsx</title>
<path fill="none" stroke="#757575" d="M359.81,-302.86C377.48,-277.63 423.24,-218.01 478,-191.5 491.72,-184.86 506.89,-180.17 522.2,-176.89"/>
<polygon fill="#757575" stroke="#757575" points="523.13,-180.28 532.28,-174.94 521.79,-173.41 523.13,-180.28"/>
</g>
<!-- UI/pages/Authors/AuthorsPage.tsx -->
<g id="node4" class="node">
<title>UI/pages/Authors/AuthorsPage.tsx</title>
<path fill="none" stroke="#c6c5fe" d="M738.33,-429C738.33,-429 529.67,-429 529.67,-429 525.83,-429 522,-425.17 522,-421.33 522,-421.33 522,-413.67 522,-413.67 522,-409.83 525.83,-406 529.67,-406 529.67,-406 738.33,-406 738.33,-406 742.17,-406 746,-409.83 746,-413.67 746,-413.67 746,-421.33 746,-421.33 746,-425.17 742.17,-429 738.33,-429"/>
<text text-anchor="middle" x="634" y="-413.8" font-family="Arial" font-size="14.00" fill="#c6c5fe">UI/pages/Authors/AuthorsPage.tsx</text>
</g>
<!-- App.tsx&#45;&gt;UI/pages/Authors/AuthorsPage.tsx -->
<g id="edge3" class="edge">
<title>App.tsx&#45;&gt;UI/pages/Authors/AuthorsPage.tsx</title>
<path fill="none" stroke="#757575" d="M365.26,-326.04C387.09,-344.35 432.74,-379.68 478,-396.5 488.84,-400.53 500.36,-403.8 512.04,-406.45"/>
<polygon fill="#757575" stroke="#757575" points="511.36,-409.88 521.87,-408.53 512.81,-403.03 511.36,-409.88"/>
</g>
<!-- UI/pages/BookWorms/BookwormsPage.tsx -->
<g id="node5" class="node">
<title>UI/pages/BookWorms/BookwormsPage.tsx</title>
<path fill="none" stroke="#c6c5fe" d="M764.33,-470C764.33,-470 503.67,-470 503.67,-470 499.83,-470 496,-466.17 496,-462.33 496,-462.33 496,-454.67 496,-454.67 496,-450.83 499.83,-447 503.67,-447 503.67,-447 764.33,-447 764.33,-447 768.17,-447 772,-450.83 772,-454.67 772,-454.67 772,-462.33 772,-462.33 772,-466.17 768.17,-470 764.33,-470"/>
<text text-anchor="middle" x="634" y="-454.8" font-family="Arial" font-size="14.00" fill="#c6c5fe">UI/pages/BookWorms/BookwormsPage.tsx</text>
</g>
<!-- App.tsx&#45;&gt;UI/pages/BookWorms/BookwormsPage.tsx -->
<g id="edge4" class="edge">
<title>App.tsx&#45;&gt;UI/pages/BookWorms/BookwormsPage.tsx</title>
<path fill="none" stroke="#757575" d="M359.83,-326.11C377.52,-351.29 423.33,-410.82 478,-437.5 482.61,-439.75 487.38,-441.78 492.27,-443.62"/>
<polygon fill="#757575" stroke="#757575" points="491.21,-446.95 501.8,-446.91 493.49,-440.33 491.21,-446.95"/>
</g>
<!-- UI/pages/Books/BooksPage.tsx -->
<g id="node6" class="node">
<title>UI/pages/Books/BooksPage.tsx</title>
<path fill="none" stroke="#c6c5fe" d="M729.33,-388C729.33,-388 538.67,-388 538.67,-388 534.83,-388 531,-384.17 531,-380.33 531,-380.33 531,-372.67 531,-372.67 531,-368.83 534.83,-365 538.67,-365 538.67,-365 729.33,-365 729.33,-365 733.17,-365 737,-368.83 737,-372.67 737,-372.67 737,-380.33 737,-380.33 737,-384.17 733.17,-388 729.33,-388"/>
<text text-anchor="middle" x="634" y="-372.8" font-family="Arial" font-size="14.00" fill="#c6c5fe">UI/pages/Books/BooksPage.tsx</text>
</g>
<!-- App.tsx&#45;&gt;UI/pages/Books/BooksPage.tsx -->
<g id="edge5" class="edge">
<title>App.tsx&#45;&gt;UI/pages/Books/BooksPage.tsx</title>
<path fill="none" stroke="#757575" d="M382.12,-326C407.38,-335.23 444.59,-347.87 478,-355.5 491.77,-358.65 506.34,-361.38 520.81,-363.74"/>
<polygon fill="#757575" stroke="#757575" points="520.39,-367.22 530.81,-365.31 521.48,-360.3 520.39,-367.22"/>
</g>
<!-- UI/pages/Home/HomePage.tsx -->
<g id="node7" class="node">
<title>UI/pages/Home/HomePage.tsx</title>
<path fill="none" stroke="#c6c5fe" d="M728.33,-265C728.33,-265 539.67,-265 539.67,-265 535.83,-265 532,-261.17 532,-257.33 532,-257.33 532,-249.67 532,-249.67 532,-245.83 535.83,-242 539.67,-242 539.67,-242 728.33,-242 728.33,-242 732.17,-242 736,-245.83 736,-249.67 736,-249.67 736,-257.33 736,-257.33 736,-261.17 732.17,-265 728.33,-265"/>
<text text-anchor="middle" x="634" y="-249.8" font-family="Arial" font-size="14.00" fill="#c6c5fe">UI/pages/Home/HomePage.tsx</text>
</g>
<!-- App.tsx&#45;&gt;UI/pages/Home/HomePage.tsx -->
<g id="edge6" class="edge">
<title>App.tsx&#45;&gt;UI/pages/Home/HomePage.tsx</title>
<path fill="none" stroke="#757575" d="M382.11,-302.95C407.36,-293.68 444.56,-281.03 478,-273.5 491.98,-270.35 506.79,-267.65 521.49,-265.35"/>
<polygon fill="#757575" stroke="#757575" points="522.27,-268.77 531.64,-263.82 521.23,-261.85 522.27,-268.77"/>
</g>
<!-- UI/pages/PageNotFound/PageNotFoundPage.tsx -->
<g id="node8" class="node">
<title>UI/pages/PageNotFound/PageNotFoundPage.tsx</title>
<path fill="none" stroke="#c6c5fe" d="M782.33,-224C782.33,-224 485.67,-224 485.67,-224 481.83,-224 478,-220.17 478,-216.33 478,-216.33 478,-208.67 478,-208.67 478,-204.83 481.83,-201 485.67,-201 485.67,-201 782.33,-201 782.33,-201 786.17,-201 790,-204.83 790,-208.67 790,-208.67 790,-216.33 790,-216.33 790,-220.17 786.17,-224 782.33,-224"/>
<text text-anchor="middle" x="634" y="-208.8" font-family="Arial" font-size="14.00" fill="#c6c5fe">UI/pages/PageNotFound/PageNotFoundPage.tsx</text>
</g>
<!-- App.tsx&#45;&gt;UI/pages/PageNotFound/PageNotFoundPage.tsx -->
<g id="edge7" class="edge">
<title>App.tsx&#45;&gt;UI/pages/PageNotFound/PageNotFoundPage.tsx</title>
<path fill="none" stroke="#757575" d="M365.24,-302.92C387.06,-284.57 432.69,-249.18 478,-232.5 483.93,-230.32 490.07,-228.37 496.32,-226.62"/>
<polygon fill="#757575" stroke="#757575" points="497.43,-229.95 506.23,-224.05 495.68,-223.17 497.43,-229.95"/>
</g>
<!-- UI/pages/Reviews/ReviewPage.tsx -->
<g id="node9" class="node">
<title>UI/pages/Reviews/ReviewPage.tsx</title>
<path fill="none" stroke="#c6c5fe" d="M739.33,-748C739.33,-748 528.67,-748 528.67,-748 524.83,-748 521,-744.17 521,-740.33 521,-740.33 521,-732.67 521,-732.67 521,-728.83 524.83,-725 528.67,-725 528.67,-725 739.33,-725 739.33,-725 743.17,-725 747,-728.83 747,-732.67 747,-732.67 747,-740.33 747,-740.33 747,-744.17 743.17,-748 739.33,-748"/>
<text text-anchor="middle" x="634" y="-732.8" font-family="Arial" font-size="14.00" fill="#c6c5fe">UI/pages/Reviews/ReviewPage.tsx</text>
</g>
<!-- App.tsx&#45;&gt;UI/pages/Reviews/ReviewPage.tsx -->
<g id="edge8" class="edge">
<title>App.tsx&#45;&gt;UI/pages/Reviews/ReviewPage.tsx</title>
<path fill="none" stroke="#757575" d="M359.81,-326.23C398.49,-384.31 569.65,-641.37 619.4,-716.07"/>
<polygon fill="#757575" stroke="#757575" points="616.64,-718.25 625.1,-724.63 622.47,-714.37 616.64,-718.25"/>
</g>
<!-- UI/pages/Welcome/WelcomePage.tsx -->
<g id="node10" class="node">
<title>UI/pages/Welcome/WelcomePage.tsx</title>
<path fill="none" stroke="#cfffac" d="M748.83,-347C748.83,-347 519.17,-347 519.17,-347 515.33,-347 511.5,-343.17 511.5,-339.33 511.5,-339.33 511.5,-331.67 511.5,-331.67 511.5,-327.83 515.33,-324 519.17,-324 519.17,-324 748.83,-324 748.83,-324 752.67,-324 756.5,-327.83 756.5,-331.67 756.5,-331.67 756.5,-339.33 756.5,-339.33 756.5,-343.17 752.67,-347 748.83,-347"/>
<text text-anchor="middle" x="634" y="-331.8" font-family="Arial" font-size="14.00" fill="#cfffac">UI/pages/Welcome/WelcomePage.tsx</text>
</g>
<!-- App.tsx&#45;&gt;UI/pages/Welcome/WelcomePage.tsx -->
<g id="edge9" class="edge">
<title>App.tsx&#45;&gt;UI/pages/Welcome/WelcomePage.tsx</title>
<path fill="none" stroke="#757575" d="M382.07,-316.75C410.96,-318.91 456.69,-322.32 501.23,-325.65"/>
<polygon fill="#757575" stroke="#757575" points="501.08,-329.15 511.31,-326.41 501.6,-322.17 501.08,-329.15"/>
</g>
<!-- helpers/PrivateRoute.ts -->
<g id="node11" class="node">
<title>helpers/PrivateRoute.ts</title>
<path fill="none" stroke="#cfffac" d="M704.83,-306C704.83,-306 563.17,-306 563.17,-306 559.33,-306 555.5,-302.17 555.5,-298.33 555.5,-298.33 555.5,-290.67 555.5,-290.67 555.5,-286.83 559.33,-283 563.17,-283 563.17,-283 704.83,-283 704.83,-283 708.67,-283 712.5,-286.83 712.5,-290.67 712.5,-290.67 712.5,-298.33 712.5,-298.33 712.5,-302.17 708.67,-306 704.83,-306"/>
<text text-anchor="middle" x="634" y="-290.8" font-family="Arial" font-size="14.00" fill="#cfffac">helpers/PrivateRoute.ts</text>
</g>
<!-- App.tsx&#45;&gt;helpers/PrivateRoute.ts -->
<g id="edge10" class="edge">
<title>App.tsx&#45;&gt;helpers/PrivateRoute.ts</title>
<path fill="none" stroke="#757575" d="M382.07,-312.36C420.66,-309.61 489.26,-304.73 545,-300.76"/>
<polygon fill="#757575" stroke="#757575" points="545.52,-304.24 555.24,-300.03 545.02,-297.25 545.52,-304.24"/>
</g>
<!-- UI/components/Controllers/TextInput.tsx -->
<g id="node22" class="node">
<title>UI/components/Controllers/TextInput.tsx</title>
<path fill="none" stroke="#c6c5fe" d="M1757.33,-427C1757.33,-427 1515.67,-427 1515.67,-427 1511.83,-427 1508,-423.17 1508,-419.33 1508,-419.33 1508,-411.67 1508,-411.67 1508,-407.83 1511.83,-404 1515.67,-404 1515.67,-404 1757.33,-404 1757.33,-404 1761.17,-404 1765,-407.83 1765,-411.67 1765,-411.67 1765,-419.33 1765,-419.33 1765,-423.17 1761.17,-427 1757.33,-427"/>
<text text-anchor="middle" x="1636.5" y="-411.8" font-family="Arial" font-size="14.00" fill="#c6c5fe">UI/components/Controllers/TextInput.tsx</text>
</g>
<!-- UI/pages/Auth/SignInPage.tsx&#45;&gt;UI/components/Controllers/TextInput.tsx -->
<g id="edge39" class="edge">
<title>UI/pages/Auth/SignInPage.tsx&#45;&gt;UI/components/Controllers/TextInput.tsx</title>
<path fill="none" stroke="#757575" d="M679.67,-118.98C811.25,-87.76 1204.15,-14.19 1460,-174.5 1548.06,-229.68 1605.94,-346.54 1626.81,-394.39"/>
<polygon fill="#757575" stroke="#757575" points="1623.67,-395.93 1630.81,-403.76 1630.11,-393.19 1623.67,-395.93"/>
</g>
<!-- UI/components/Navigation/NavigationBar.tsx -->
<g id="node25" class="node">
<title>UI/components/Navigation/NavigationBar.tsx</title>
<path fill="none" stroke="#c6c5fe" d="M1102.33,-265C1102.33,-265 833.67,-265 833.67,-265 829.83,-265 826,-261.17 826,-257.33 826,-257.33 826,-249.67 826,-249.67 826,-245.83 829.83,-242 833.67,-242 833.67,-242 1102.33,-242 1102.33,-242 1106.17,-242 1110,-245.83 1110,-249.67 1110,-249.67 1110,-257.33 1110,-257.33 1110,-261.17 1106.17,-265 1102.33,-265"/>
<text text-anchor="middle" x="968" y="-249.8" font-family="Arial" font-size="14.00" fill="#c6c5fe">UI/components/Navigation/NavigationBar.tsx</text>
</g>
<!-- UI/pages/Auth/SignInPage.tsx&#45;&gt;UI/components/Navigation/NavigationBar.tsx -->
<g id="edge40" class="edge">
<title>UI/pages/Auth/SignInPage.tsx&#45;&gt;UI/components/Navigation/NavigationBar.tsx</title>
<path fill="none" stroke="#757575" d="M732.65,-127.93C753.13,-131.36 773.49,-138.14 790,-150.5 821.86,-174.36 794.37,-208.33 826,-232.5 828.06,-234.08 830.2,-235.56 832.39,-236.96"/>
<polygon fill="#757575" stroke="#757575" points="830.69,-240.02 841.11,-241.9 834.14,-233.93 830.69,-240.02"/>
</g>
<!-- UI/components/Text/PageTitle.tsx -->
<g id="node32" class="node">
<title>UI/components/Text/PageTitle.tsx</title>
<path fill="none" stroke="#cfffac" d="M1069.33,-224C1069.33,-224 866.67,-224 866.67,-224 862.83,-224 859,-220.17 859,-216.33 859,-216.33 859,-208.67 859,-208.67 859,-204.83 862.83,-201 866.67,-201 866.67,-201 1069.33,-201 1069.33,-201 1073.17,-201 1077,-204.83 1077,-208.67 1077,-208.67 1077,-216.33 1077,-216.33 1077,-220.17 1073.17,-224 1069.33,-224"/>
<text text-anchor="middle" x="968" y="-208.8" font-family="Arial" font-size="14.00" fill="#cfffac">UI/components/Text/PageTitle.tsx</text>
</g>
<!-- UI/pages/Auth/SignInPage.tsx&#45;&gt;UI/components/Text/PageTitle.tsx -->
<g id="edge41" class="edge">
<title>UI/pages/Auth/SignInPage.tsx&#45;&gt;UI/components/Text/PageTitle.tsx</title>
<path fill="none" stroke="#757575" d="M732.71,-139.96C751.84,-142.69 771.65,-146.15 790,-150.5 839.67,-162.27 894.88,-182.87 930.22,-197.08"/>
<polygon fill="#757575" stroke="#757575" points="929.06,-200.38 939.64,-200.9 931.69,-193.9 929.06,-200.38"/>
</g>
<!-- UI/pages/Auth/helpers.ts -->
<g id="node42" class="node">
<title>UI/pages/Auth/helpers.ts</title>
<path fill="none" stroke="#cfffac" d="M1042.33,-144C1042.33,-144 893.67,-144 893.67,-144 889.83,-144 886,-140.17 886,-136.33 886,-136.33 886,-128.67 886,-128.67 886,-124.83 889.83,-121 893.67,-121 893.67,-121 1042.33,-121 1042.33,-121 1046.17,-121 1050,-124.83 1050,-128.67 1050,-128.67 1050,-136.33 1050,-136.33 1050,-140.17 1046.17,-144 1042.33,-144"/>
<text text-anchor="middle" x="968" y="-128.8" font-family="Arial" font-size="14.00" fill="#cfffac">UI/pages/Auth/helpers.ts</text>
</g>
<!-- UI/pages/Auth/SignInPage.tsx&#45;&gt;UI/pages/Auth/helpers.ts -->
<g id="edge42" class="edge">
<title>UI/pages/Auth/SignInPage.tsx&#45;&gt;UI/pages/Auth/helpers.ts</title>
<path fill="none" stroke="#757575" d="M732.82,-131.09C777.98,-131.36 831.29,-131.68 875.63,-131.95"/>
<polygon fill="#757575" stroke="#757575" points="875.8,-135.45 885.82,-132.01 875.84,-128.45 875.8,-135.45"/>
</g>
<!-- UI/pages/Auth/SingUpPage.tsx&#45;&gt;UI/components/Controllers/TextInput.tsx -->
<g id="edge43" class="edge">
<title>UI/pages/Auth/SingUpPage.tsx&#45;&gt;UI/components/Controllers/TextInput.tsx</title>
<path fill="none" stroke="#757575" d="M735.52,-169.58C926.85,-167.43 1335.42,-170.55 1460,-232.5 1536.31,-270.44 1597.57,-355.65 1622.9,-394.94"/>
<polygon fill="#757575" stroke="#757575" points="1620.25,-397.3 1628.55,-403.88 1626.17,-393.56 1620.25,-397.3"/>
</g>
<!-- UI/pages/Auth/SingUpPage.tsx&#45;&gt;UI/components/Navigation/NavigationBar.tsx -->
<g id="edge44" class="edge">
<title>UI/pages/Auth/SingUpPage.tsx&#45;&gt;UI/components/Navigation/NavigationBar.tsx</title>
<path fill="none" stroke="#757575" d="M735.84,-173.84C754.6,-177.19 773.47,-182.7 790,-191.5 811.4,-202.9 804.71,-220.89 826,-232.5 829.96,-234.66 834.07,-236.61 838.28,-238.39"/>
<polygon fill="#757575" stroke="#757575" points="837.08,-241.67 847.67,-241.98 839.59,-235.14 837.08,-241.67"/>
</g>
<!-- UI/pages/Auth/SingUpPage.tsx&#45;&gt;UI/components/Text/PageTitle.tsx -->
<g id="edge45" class="edge">
<title>UI/pages/Auth/SingUpPage.tsx&#45;&gt;UI/components/Text/PageTitle.tsx</title>
<path fill="none" stroke="#757575" d="M728.36,-183.03C770.53,-188.24 820.49,-194.41 863.78,-199.75"/>
<polygon fill="#757575" stroke="#757575" points="863.41,-203.23 873.76,-200.99 864.27,-196.29 863.41,-203.23"/>
</g>
<!-- UI/pages/Auth/SingUpPage.tsx&#45;&gt;UI/pages/Auth/helpers.ts -->
<g id="edge46" class="edge">
<title>UI/pages/Auth/SingUpPage.tsx&#45;&gt;UI/pages/Auth/helpers.ts</title>
<path fill="none" stroke="#757575" d="M733.26,-159.96C778.32,-154.66 831.41,-148.43 875.6,-143.24"/>
<polygon fill="#757575" stroke="#757575" points="876.24,-146.69 885.76,-142.04 875.42,-139.73 876.24,-146.69"/>
</g>
<!-- UI/pages/Authors/AuthorsPage.tsx&#45;&gt;UI/components/Navigation/NavigationBar.tsx -->
<g id="edge48" class="edge">
<title>UI/pages/Authors/AuthorsPage.tsx&#45;&gt;UI/components/Navigation/NavigationBar.tsx</title>
<path fill="none" stroke="#757575" d="M746.33,-418.21C762.32,-414.04 777.54,-407.21 790,-396.5 833.18,-359.36 782.93,-310.78 826,-273.5 827.03,-272.61 828.07,-271.75 829.14,-270.92"/>
<polygon fill="#757575" stroke="#757575" points="831.39,-273.63 837.66,-265.09 827.43,-267.85 831.39,-273.63"/>
</g>
<!-- UI/pages/Authors/AuthorsPage.tsx&#45;&gt;UI/components/Text/PageTitle.tsx -->
<g id="edge49" class="edge">
<title>UI/pages/Authors/AuthorsPage.tsx&#45;&gt;UI/components/Text/PageTitle.tsx</title>
<path fill="none" stroke="#757575" d="M746.2,-419.15C762.39,-414.91 777.72,-407.82 790,-396.5 844.87,-345.92 771.29,-283.25 826,-232.5 832.86,-226.14 840.76,-221.22 849.26,-217.46"/>
<polygon fill="#757575" stroke="#757575" points="850.63,-220.69 858.69,-213.82 848.11,-214.16 850.63,-220.69"/>
</g>
<!-- UI/pages/Authors/AuthorsChart.tsx -->
<g id="node43" class="node">
<title>UI/pages/Authors/AuthorsChart.tsx</title>
<path fill="none" stroke="#c6c5fe" d="M1072.83,-550C1072.83,-550 863.17,-550 863.17,-550 859.33,-550 855.5,-546.17 855.5,-542.33 855.5,-542.33 855.5,-534.67 855.5,-534.67 855.5,-530.83 859.33,-527 863.17,-527 863.17,-527 1072.83,-527 1072.83,-527 1076.67,-527 1080.5,-530.83 1080.5,-534.67 1080.5,-534.67 1080.5,-542.33 1080.5,-542.33 1080.5,-546.17 1076.67,-550 1072.83,-550"/>
<text text-anchor="middle" x="968" y="-534.8" font-family="Arial" font-size="14.00" fill="#c6c5fe">UI/pages/Authors/AuthorsChart.tsx</text>
</g>
<!-- UI/pages/Authors/AuthorsPage.tsx&#45;&gt;UI/pages/Authors/AuthorsChart.tsx -->
<g id="edge50" class="edge">
<title>UI/pages/Authors/AuthorsPage.tsx&#45;&gt;UI/pages/Authors/AuthorsChart.tsx</title>
<path fill="none" stroke="#757575" d="M746.25,-417.86C761.98,-421.76 777.14,-427.96 790,-437.5 821.32,-460.73 794.91,-493.97 826,-517.5 832.04,-522.07 838.65,-525.85 845.6,-528.96"/>
<polygon fill="#757575" stroke="#757575" points="844.7,-532.36 855.28,-532.79 847.28,-525.85 844.7,-532.36"/>
</g>
<!-- UI/pages/Authors/AuthorsTable.tsx -->
<g id="node44" class="node">
<title>UI/pages/Authors/AuthorsTable.tsx</title>
<path fill="none" stroke="#c6c5fe" d="M1072.33,-509C1072.33,-509 863.67,-509 863.67,-509 859.83,-509 856,-505.17 856,-501.33 856,-501.33 856,-493.67 856,-493.67 856,-489.83 859.83,-486 863.67,-486 863.67,-486 1072.33,-486 1072.33,-486 1076.17,-486 1080,-489.83 1080,-493.67 1080,-493.67 1080,-501.33 1080,-501.33 1080,-505.17 1076.17,-509 1072.33,-509"/>
<text text-anchor="middle" x="968" y="-493.8" font-family="Arial" font-size="14.00" fill="#c6c5fe">UI/pages/Authors/AuthorsTable.tsx</text>
</g>
<!-- UI/pages/Authors/AuthorsPage.tsx&#45;&gt;UI/pages/Authors/AuthorsTable.tsx -->
<g id="edge51" class="edge">
<title>UI/pages/Authors/AuthorsPage.tsx&#45;&gt;UI/pages/Authors/AuthorsTable.tsx</title>
<path fill="none" stroke="#757575" d="M746.28,-422.28C761.49,-425.65 776.5,-430.53 790,-437.5 810.96,-448.33 805.15,-465.47 826,-476.5 832.39,-479.88 839.16,-482.76 846.14,-485.22"/>
<polygon fill="#757575" stroke="#757575" points="845.18,-488.59 855.77,-488.31 847.31,-481.92 845.18,-488.59"/>
</g>
<!-- UI/components/Cards/UserDetails.tsx -->
<g id="node12" class="node">
<title>UI/components/Cards/UserDetails.tsx</title>
<path fill="none" stroke="#c6c5fe" d="M1081.33,-632C1081.33,-632 854.67,-632 854.67,-632 850.83,-632 847,-628.17 847,-624.33 847,-624.33 847,-616.67 847,-616.67 847,-612.83 850.83,-609 854.67,-609 854.67,-609 1081.33,-609 1081.33,-609 1085.17,-609 1089,-612.83 1089,-616.67 1089,-616.67 1089,-624.33 1089,-624.33 1089,-628.17 1085.17,-632 1081.33,-632"/>
<text text-anchor="middle" x="968" y="-616.8" font-family="Arial" font-size="14.00" fill="#c6c5fe">UI/components/Cards/UserDetails.tsx</text>
</g>
<!-- UI/pages/BookWorms/BookwormsPage.tsx&#45;&gt;UI/components/Cards/UserDetails.tsx -->
<g id="edge55" class="edge">
<title>UI/pages/BookWorms/BookwormsPage.tsx&#45;&gt;UI/components/Cards/UserDetails.tsx</title>
<path fill="none" stroke="#757575" d="M646.23,-470.02C673.88,-497.61 748.67,-567.54 826,-599.5 832.15,-602.04 838.56,-604.28 845.11,-606.25"/>
<polygon fill="#757575" stroke="#757575" points="844.22,-609.64 854.79,-608.95 846.1,-602.89 844.22,-609.64"/>
</g>
<!-- UI/pages/BookWorms/BookwormsPage.tsx&#45;&gt;UI/components/Navigation/NavigationBar.tsx -->
<g id="edge56" class="edge">
<title>UI/pages/BookWorms/BookwormsPage.tsx&#45;&gt;UI/components/Navigation/NavigationBar.tsx</title>
<path fill="none" stroke="#757575" d="M772.25,-450.08C778.63,-446.62 784.61,-442.47 790,-437.5 844.87,-386.92 771.29,-324.25 826,-273.5 826.84,-272.72 827.69,-271.97 828.56,-271.23"/>
<polygon fill="#757575" stroke="#757575" points="830.8,-273.93 836.76,-265.17 826.64,-268.3 830.8,-273.93"/>
</g>
<!-- UI/pages/BookWorms/BookwormsPage.tsx&#45;&gt;UI/components/Text/PageTitle.tsx -->
<g id="edge57" class="edge">
<title>UI/pages/BookWorms/BookwormsPage.tsx&#45;&gt;UI/components/Text/PageTitle.tsx</title>
<path fill="none" stroke="#757575" d="M772.15,-450.55C778.6,-446.98 784.62,-442.68 790,-437.5 856.68,-373.38 759.52,-296.83 826,-232.5 832.79,-225.93 840.68,-220.88 849.21,-217.04"/>
<polygon fill="#757575" stroke="#757575" points="850.65,-220.23 858.69,-213.33 848.1,-213.72 850.65,-220.23"/>
</g>
<!-- UI/components/Text/Warning.tsx -->
<g id="node33" class="node">
<title>UI/components/Text/Warning.tsx</title>
<path fill="none" stroke="#cfffac" d="M1066.33,-388C1066.33,-388 869.67,-388 869.67,-388 865.83,-388 862,-384.17 862,-380.33 862,-380.33 862,-372.67 862,-372.67 862,-368.83 865.83,-365 869.67,-365 869.67,-365 1066.33,-365 1066.33,-365 1070.17,-365 1074,-368.83 1074,-372.67 1074,-372.67 1074,-380.33 1074,-380.33 1074,-384.17 1070.17,-388 1066.33,-388"/>
<text text-anchor="middle" x="968" y="-372.8" font-family="Arial" font-size="14.00" fill="#cfffac">UI/components/Text/Warning.tsx</text>
</g>
<!-- UI/pages/BookWorms/BookwormsPage.tsx&#45;&gt;UI/components/Text/Warning.tsx -->
<g id="edge58" class="edge">
<title>UI/pages/BookWorms/BookwormsPage.tsx&#45;&gt;UI/components/Text/Warning.tsx</title>
<path fill="none" stroke="#757575" d="M766.19,-446.89C774.42,-444.28 782.43,-441.18 790,-437.5 810.06,-427.73 806.17,-412.74 826,-402.5 834.87,-397.92 844.43,-394.13 854.24,-391"/>
<polygon fill="#757575" stroke="#757575" points="855.51,-394.28 864.11,-388.09 853.53,-387.56 855.51,-394.28"/>
</g>
<!-- UI/pages/BookWorms/BookwormsTable.tsx -->
<g id="node46" class="node">
<title>UI/pages/BookWorms/BookwormsTable.tsx</title>
<path fill="none" stroke="#c6c5fe" d="M1098.83,-591C1098.83,-591 837.17,-591 837.17,-591 833.33,-591 829.5,-587.17 829.5,-583.33 829.5,-583.33 829.5,-575.67 829.5,-575.67 829.5,-571.83 833.33,-568 837.17,-568 837.17,-568 1098.83,-568 1098.83,-568 1102.67,-568 1106.5,-571.83 1106.5,-575.67 1106.5,-575.67 1106.5,-583.33 1106.5,-583.33 1106.5,-587.17 1102.67,-591 1098.83,-591"/>
<text text-anchor="middle" x="968" y="-575.8" font-family="Arial" font-size="14.00" fill="#c6c5fe">UI/pages/BookWorms/BookwormsTable.tsx</text>
</g>
<!-- UI/pages/BookWorms/BookwormsPage.tsx&#45;&gt;UI/pages/BookWorms/BookwormsTable.tsx -->
<g id="edge59" class="edge">
<title>UI/pages/BookWorms/BookwormsPage.tsx&#45;&gt;UI/pages/BookWorms/BookwormsTable.tsx</title>
<path fill="none" stroke="#757575" d="M652.29,-470.12C684.78,-491.35 757.85,-536.29 826,-558.5 834.55,-561.29 843.52,-563.71 852.61,-565.81"/>
<polygon fill="#757575" stroke="#757575" points="852,-569.26 862.51,-567.96 853.49,-562.42 852,-569.26"/>
</g>
<!-- UI/pages/Books/BooksPage.tsx&#45;&gt;UI/components/Navigation/NavigationBar.tsx -->
<g id="edge65" class="edge">
<title>UI/pages/Books/BooksPage.tsx&#45;&gt;UI/components/Navigation/NavigationBar.tsx</title>
<path fill="none" stroke="#757575" d="M737.13,-377.55C756.09,-373.79 774.71,-367.02 790,-355.5 821.78,-331.54 794.29,-297.56 826,-273.5 827.46,-272.4 828.94,-271.34 830.46,-270.33"/>
<polygon fill="#757575" stroke="#757575" points="832.64,-273.11 839.48,-265.01 829.09,-267.08 832.64,-273.11"/>
</g>
<!-- UI/pages/Books/BooksPage.tsx&#45;&gt;UI/components/Text/PageTitle.tsx -->
<g id="edge66" class="edge">
<title>UI/pages/Books/BooksPage.tsx&#45;&gt;UI/components/Text/PageTitle.tsx</title>
<path fill="none" stroke="#757575" d="M737.14,-379.31C756.43,-375.49 775.18,-368.25 790,-355.5 833.18,-318.36 782.93,-269.78 826,-232.5 833,-226.44 840.97,-221.72 849.48,-218.09"/>
<polygon fill="#757575" stroke="#757575" points="850.76,-221.35 858.9,-214.56 848.31,-214.79 850.76,-221.35"/>
</g>
<!-- UI/pages/Books/BookChartLanguages.tsx -->
<g id="node48" class="node">
<title>UI/pages/Books/BookChartLanguages.tsx</title>
<path fill="none" stroke="#c6c5fe" d="M1093.83,-347C1093.83,-347 842.17,-347 842.17,-347 838.33,-347 834.5,-343.17 834.5,-339.33 834.5,-339.33 834.5,-331.67 834.5,-331.67 834.5,-327.83 838.33,-324 842.17,-324 842.17,-324 1093.83,-324 1093.83,-324 1097.67,-324 1101.5,-327.83 1101.5,-331.67 1101.5,-331.67 1101.5,-339.33 1101.5,-339.33 1101.5,-343.17 1097.67,-347 1093.83,-347"/>
<text text-anchor="middle" x="968" y="-331.8" font-family="Arial" font-size="14.00" fill="#c6c5fe">UI/pages/Books/BookChartLanguages.tsx</text>
</g>
<!-- UI/pages/Books/BooksPage.tsx&#45;&gt;UI/pages/Books/BookChartLanguages.tsx -->
<g id="edge67" class="edge">
<title>UI/pages/Books/BooksPage.tsx&#45;&gt;UI/pages/Books/BookChartLanguages.tsx</title>
<path fill="none" stroke="#757575" d="M728.36,-364.97C770.53,-359.76 820.49,-353.59 863.78,-348.25"/>
<polygon fill="#757575" stroke="#757575" points="864.27,-351.71 873.76,-347.01 863.41,-344.77 864.27,-351.71"/>
</g>
<!-- UI/pages/Books/BooksChartGenres.tsx -->
<g id="node49" class="node">
<title>UI/pages/Books/BooksChartGenres.tsx</title>
<path fill="none" stroke="#c6c5fe" d="M1086.33,-306C1086.33,-306 849.67,-306 849.67,-306 845.83,-306 842,-302.17 842,-298.33 842,-298.33 842,-290.67 842,-290.67 842,-286.83 845.83,-283 849.67,-283 849.67,-283 1086.33,-283 1086.33,-283 1090.17,-283 1094,-286.83 1094,-290.67 1094,-290.67 1094,-298.33 1094,-298.33 1094,-302.17 1090.17,-306 1086.33,-306"/>
<text text-anchor="middle" x="968" y="-290.8" font-family="Arial" font-size="14.00" fill="#c6c5fe">UI/pages/Books/BooksChartGenres.tsx</text>
</g>
<!-- UI/pages/Books/BooksPage.tsx&#45;&gt;UI/pages/Books/BooksChartGenres.tsx -->
<g id="edge68" class="edge">
<title>UI/pages/Books/BooksPage.tsx&#45;&gt;UI/pages/Books/BooksChartGenres.tsx</title>
<path fill="none" stroke="#757575" d="M737.08,-373.21C755.44,-369.72 773.85,-364.17 790,-355.5 811.37,-344.03 804.67,-326.03 826,-314.5 829.14,-312.8 832.37,-311.23 835.68,-309.78"/>
<polygon fill="#757575" stroke="#757575" points="837.19,-312.95 845.18,-306 834.6,-306.45 837.19,-312.95"/>
</g>
<!-- UI/pages/Books/BooksTable.tsx -->
<g id="node50" class="node">
<title>UI/pages/Books/BooksTable.tsx</title>
<path fill="none" stroke="#c6c5fe" d="M1063.33,-468C1063.33,-468 872.67,-468 872.67,-468 868.83,-468 865,-464.17 865,-460.33 865,-460.33 865,-452.67 865,-452.67 865,-448.83 868.83,-445 872.67,-445 872.67,-445 1063.33,-445 1063.33,-445 1067.17,-445 1071,-448.83 1071,-452.67 1071,-452.67 1071,-460.33 1071,-460.33 1071,-464.17 1067.17,-468 1063.33,-468"/>
<text text-anchor="middle" x="968" y="-452.8" font-family="Arial" font-size="14.00" fill="#c6c5fe">UI/pages/Books/BooksTable.tsx</text>
</g>
<!-- UI/pages/Books/BooksPage.tsx&#45;&gt;UI/pages/Books/BooksTable.tsx -->
<g id="edge69" class="edge">
<title>UI/pages/Books/BooksPage.tsx&#45;&gt;UI/pages/Books/BooksTable.tsx</title>
<path fill="none" stroke="#757575" d="M737.23,-386.76C754.94,-389.37 773.08,-392.58 790,-396.5 839.12,-407.88 893.82,-427.55 929.23,-441.25"/>
<polygon fill="#757575" stroke="#757575" points="928.1,-444.57 938.69,-444.95 930.65,-438.05 928.1,-444.57"/>
</g>
<!-- UI/pages/Home/HomePage.tsx&#45;&gt;UI/components/Cards/UserDetails.tsx -->
<g id="edge78" class="edge">
<title>UI/pages/Home/HomePage.tsx&#45;&gt;UI/components/Cards/UserDetails.tsx</title>
<path fill="none" stroke="#757575" d="M736.1,-247.51C756.28,-251.15 775.65,-258.88 790,-273.5 892.13,-377.52 724.9,-494.49 826,-599.5 829.71,-603.36 833.81,-606.71 838.19,-609.62"/>
<polygon fill="#757575" stroke="#757575" points="836.54,-612.71 846.95,-614.69 840.04,-606.65 836.54,-612.71"/>
</g>
<!-- UI/pages/Home/HomePage.tsx&#45;&gt;UI/components/Navigation/NavigationBar.tsx -->
<g id="edge79" class="edge">
<title>UI/pages/Home/HomePage.tsx&#45;&gt;UI/components/Navigation/NavigationBar.tsx</title>
<path fill="none" stroke="#757575" d="M736.41,-253.5C761.44,-253.5 788.79,-253.5 815.62,-253.5"/>
<polygon fill="#757575" stroke="#757575" points="815.87,-257 825.87,-253.5 815.87,-250 815.87,-257"/>
</g>
<!-- UI/pages/Home/HomePage.tsx&#45;&gt;UI/components/Text/PageTitle.tsx -->
<g id="edge80" class="edge">
<title>UI/pages/Home/HomePage.tsx&#45;&gt;UI/components/Text/PageTitle.tsx</title>
<path fill="none" stroke="#757575" d="M728.36,-241.97C770.53,-236.76 820.49,-230.59 863.78,-225.25"/>
<polygon fill="#757575" stroke="#757575" points="864.27,-228.71 873.76,-224.01 863.41,-221.77 864.27,-228.71"/>
</g>
<!-- UI/pages/PageNotFound/PageNotFoundPage.tsx&#45;&gt;UI/components/Text/PageTitle.tsx -->
<g id="edge81" class="edge">
<title>UI/pages/PageNotFound/PageNotFoundPage.tsx&#45;&gt;UI/components/Text/PageTitle.tsx</title>
<path fill="none" stroke="#757575" d="M790.31,-212.5C809.91,-212.5 829.7,-212.5 848.6,-212.5"/>
<polygon fill="#757575" stroke="#757575" points="848.7,-216 858.7,-212.5 848.7,-209 848.7,-216"/>
</g>
<!-- UI/components/Controllers/DatePicker.tsx -->
<g id="node14" class="node">
<title>UI/components/Controllers/DatePicker.tsx</title>
<path fill="none" stroke="#c6c5fe" d="M1762.33,-708C1762.33,-708 1510.67,-708 1510.67,-708 1506.83,-708 1503,-704.17 1503,-700.33 1503,-700.33 1503,-692.67 1503,-692.67 1503,-688.83 1506.83,-685 1510.67,-685 1510.67,-685 1762.33,-685 1762.33,-685 1766.17,-685 1770,-688.83 1770,-692.67 1770,-692.67 1770,-700.33 1770,-700.33 1770,-704.17 1766.17,-708 1762.33,-708"/>
<text text-anchor="middle" x="1636.5" y="-692.8" font-family="Arial" font-size="14.00" fill="#c6c5fe">UI/components/Controllers/DatePicker.tsx</text>
</g>
<!-- UI/pages/Reviews/ReviewPage.tsx&#45;&gt;UI/components/Controllers/DatePicker.tsx -->
<g id="edge82" class="edge">
<title>UI/pages/Reviews/ReviewPage.tsx&#45;&gt;UI/components/Controllers/DatePicker.tsx</title>
<path fill="none" stroke="#757575" d="M747.19,-735.43C906,-733.42 1205.4,-727.79 1460,-712.5 1476.19,-711.53 1493.19,-710.27 1509.99,-708.89"/>
<polygon fill="#757575" stroke="#757575" points="1510.73,-712.34 1520.41,-708.02 1510.15,-705.37 1510.73,-712.34"/>
</g>
<!-- UI/components/Controllers/NumberInput.tsx -->
<g id="node18" class="node">
<title>UI/components/Controllers/NumberInput.tsx</title>
<path fill="none" stroke="#c6c5fe" d="M1769.33,-667C1769.33,-667 1503.67,-667 1503.67,-667 1499.83,-667 1496,-663.17 1496,-659.33 1496,-659.33 1496,-651.67 1496,-651.67 1496,-647.83 1499.83,-644 1503.67,-644 1503.67,-644 1769.33,-644 1769.33,-644 1773.17,-644 1777,-647.83 1777,-651.67 1777,-651.67 1777,-659.33 1777,-659.33 1777,-663.17 1773.17,-667 1769.33,-667"/>
<text text-anchor="middle" x="1636.5" y="-651.8" font-family="Arial" font-size="14.00" fill="#c6c5fe">UI/components/Controllers/NumberInput.tsx</text>
</g>
<!-- UI/pages/Reviews/ReviewPage.tsx&#45;&gt;UI/components/Controllers/NumberInput.tsx -->
<g id="edge83" class="edge">
<title>UI/pages/Reviews/ReviewPage.tsx&#45;&gt;UI/components/Controllers/NumberInput.tsx</title>
<path fill="none" stroke="#757575" d="M747.19,-729.24C906,-718.7 1205.4,-697.84 1460,-674.5 1480.81,-672.59 1502.99,-670.35 1524.33,-668.09"/>
<polygon fill="#757575" stroke="#757575" points="1524.83,-671.56 1534.4,-667.02 1524.09,-664.6 1524.83,-671.56"/>
</g>
<!-- UI/components/Controllers/Select.tsx -->
<g id="node19" class="node">
<title>UI/components/Controllers/Select.tsx</title>
<path fill="none" stroke="#c6c5fe" d="M1748.33,-626C1748.33,-626 1524.67,-626 1524.67,-626 1520.83,-626 1517,-622.17 1517,-618.33 1517,-618.33 1517,-610.67 1517,-610.67 1517,-606.83 1520.83,-603 1524.67,-603 1524.67,-603 1748.33,-603 1748.33,-603 1752.17,-603 1756,-606.83 1756,-610.67 1756,-610.67 1756,-618.33 1756,-618.33 1756,-622.17 1752.17,-626 1748.33,-626"/>
<text text-anchor="middle" x="1636.5" y="-610.8" font-family="Arial" font-size="14.00" fill="#c6c5fe">UI/components/Controllers/Select.tsx</text>
</g>
<!-- UI/pages/Reviews/ReviewPage.tsx&#45;&gt;UI/components/Controllers/Select.tsx -->
<g id="edge84" class="edge">
<title>UI/pages/Reviews/ReviewPage.tsx&#45;&gt;UI/components/Controllers/Select.tsx</title>
<path fill="none" stroke="#757575" d="M689.12,-724.93C727.24,-717.11 779.56,-707.06 826,-700.5 1106.25,-660.91 1179.34,-677.12 1460,-640.5 1476.08,-638.4 1479.97,-636.98 1496,-634.5 1511.07,-632.16 1527.08,-629.78 1542.67,-627.51"/>
<polygon fill="#757575" stroke="#757575" points="1543.44,-630.93 1552.84,-626.03 1542.44,-624.01 1543.44,-630.93"/>
</g>
<!-- UI/components/Controllers/StarRating.tsx -->
<g id="node20" class="node">
<title>UI/components/Controllers/StarRating.tsx</title>
<path fill="none" stroke="#c6c5fe" d="M1761.83,-790C1761.83,-790 1511.17,-790 1511.17,-790 1507.33,-790 1503.5,-786.17 1503.5,-782.33 1503.5,-782.33 1503.5,-774.67 1503.5,-774.67 1503.5,-770.83 1507.33,-767 1511.17,-767 1511.17,-767 1761.83,-767 1761.83,-767 1765.67,-767 1769.5,-770.83 1769.5,-774.67 1769.5,-774.67 1769.5,-782.33 1769.5,-782.33 1769.5,-786.17 1765.67,-790 1761.83,-790"/>
<text text-anchor="middle" x="1636.5" y="-774.8" font-family="Arial" font-size="14.00" fill="#c6c5fe">UI/components/Controllers/StarRating.tsx</text>
</g>
<!-- UI/pages/Reviews/ReviewPage.tsx&#45;&gt;UI/components/Controllers/StarRating.tsx -->
<g id="edge85" class="edge">
<title>UI/pages/Reviews/ReviewPage.tsx&#45;&gt;UI/components/Controllers/StarRating.tsx</title>
<path fill="none" stroke="#757575" d="M640.5,-748.2C659.52,-787.09 726.85,-912.14 826,-957.5 883.39,-983.75 1059.58,-995.45 1110,-957.5 1156.19,-922.73 1101.79,-869.75 1146,-832.5 1197.01,-789.52 1367.67,-778.88 1493.18,-777.11"/>
<polygon fill="#757575" stroke="#757575" points="1493.32,-780.61 1503.28,-776.99 1493.24,-773.61 1493.32,-780.61"/>
</g>
<!-- UI/components/Controllers/TextArea.tsx -->
<g id="node21" class="node">
<title>UI/components/Controllers/TextArea.tsx</title>
<path fill="none" stroke="#c6c5fe" d="M1756.33,-749C1756.33,-749 1516.67,-749 1516.67,-749 1512.83,-749 1509,-745.17 1509,-741.33 1509,-741.33 1509,-733.67 1509,-733.67 1509,-729.83 1512.83,-726 1516.67,-726 1516.67,-726 1756.33,-726 1756.33,-726 1760.17,-726 1764,-729.83 1764,-733.67 1764,-733.67 1764,-741.33 1764,-741.33 1764,-745.17 1760.17,-749 1756.33,-749"/>
<text text-anchor="middle" x="1636.5" y="-733.8" font-family="Arial" font-size="14.00" fill="#c6c5fe">UI/components/Controllers/TextArea.tsx</text>
</g>
<!-- UI/pages/Reviews/ReviewPage.tsx&#45;&gt;UI/components/Controllers/TextArea.tsx -->
<g id="edge86" class="edge">
<title>UI/pages/Reviews/ReviewPage.tsx&#45;&gt;UI/components/Controllers/TextArea.tsx</title>
<path fill="none" stroke="#757575" d="M747.03,-746.09C772.94,-747.92 800.42,-749.56 826,-750.5 1107.59,-760.81 1178.41,-760.91 1460,-750.5 1472.41,-750.04 1485.3,-749.4 1498.2,-748.65"/>
<polygon fill="#757575" stroke="#757575" points="1498.78,-752.12 1508.55,-748.02 1498.36,-745.13 1498.78,-752.12"/>
</g>
<!-- UI/pages/Reviews/ReviewPage.tsx&#45;&gt;UI/components/Controllers/TextInput.tsx -->
<g id="edge87" class="edge">
<title>UI/pages/Reviews/ReviewPage.tsx&#45;&gt;UI/components/Controllers/TextInput.tsx</title>
<path fill="none" stroke="#757575" d="M641.63,-724.8C671.9,-671.57 796.69,-454.14 826,-435.5 856.25,-416.27 1110.23,-396.78 1146,-394.5 1285.27,-385.61 1320.69,-386.19 1460,-394.5 1488.1,-396.18 1518.6,-399.35 1546.16,-402.73"/>
<polygon fill="#757575" stroke="#757575" points="1545.82,-406.21 1556.18,-403.98 1546.69,-399.26 1545.82,-406.21"/>
</g>
<!-- UI/pages/Reviews/ReviewPage.tsx&#45;&gt;UI/components/Navigation/NavigationBar.tsx -->
<g id="edge88" class="edge">
<title>UI/pages/Reviews/ReviewPage.tsx&#45;&gt;UI/components/Navigation/NavigationBar.tsx</title>
<path fill="none" stroke="#757575" d="M644.11,-724.96C671.14,-690.08 751.43,-581.79 790,-478.5 822.36,-391.84 759.52,-337.83 826,-273.5 826.7,-272.82 827.41,-272.16 828.13,-271.52"/>
<polygon fill="#757575" stroke="#757575" points="830.53,-274.09 836.29,-265.19 826.24,-268.56 830.53,-274.09"/>
</g>
<!-- UI/pages/Reviews/ReviewPage.tsx&#45;&gt;UI/components/Text/PageTitle.tsx -->
<g id="edge89" class="edge">
<title>UI/pages/Reviews/ReviewPage.tsx&#45;&gt;UI/components/Text/PageTitle.tsx</title>
<path fill="none" stroke="#757575" d="M644.64,-724.51C672.43,-689.25 753.08,-581.83 790,-478.5 808.59,-426.47 786.85,-271.48 826,-232.5 832.76,-225.77 840.67,-220.62 849.25,-216.72"/>
<polygon fill="#757575" stroke="#757575" points="850.77,-219.88 858.8,-212.96 848.21,-213.37 850.77,-219.88"/>
</g>
<!-- UI/hooks/useGetAuthors.tsx -->
<g id="node35" class="node">
<title>UI/hooks/useGetAuthors.tsx</title>
<path fill="none" stroke="#cfffac" d="M1052.83,-949C1052.83,-949 883.17,-949 883.17,-949 879.33,-949 875.5,-945.17 875.5,-941.33 875.5,-941.33 875.5,-933.67 875.5,-933.67 875.5,-929.83 879.33,-926 883.17,-926 883.17,-926 1052.83,-926 1052.83,-926 1056.67,-926 1060.5,-929.83 1060.5,-933.67 1060.5,-933.67 1060.5,-941.33 1060.5,-941.33 1060.5,-945.17 1056.67,-949 1052.83,-949"/>
<text text-anchor="middle" x="968" y="-933.8" font-family="Arial" font-size="14.00" fill="#cfffac">UI/hooks/useGetAuthors.tsx</text>
</g>
<!-- UI/pages/Reviews/ReviewPage.tsx&#45;&gt;UI/hooks/useGetAuthors.tsx -->
<g id="edge90" class="edge">
<title>UI/pages/Reviews/ReviewPage.tsx&#45;&gt;UI/hooks/useGetAuthors.tsx</title>
<path fill="none" stroke="#757575" d="M643.29,-748.27C667.24,-781.26 740.33,-874.92 826,-916.5 838.27,-922.46 851.8,-926.82 865.47,-930"/>
<polygon fill="#757575" stroke="#757575" points="864.92,-933.47 875.43,-932.12 866.37,-926.62 864.92,-933.47"/>
</g>
<!-- UI/hooks/useGetBooks.tsx -->
<g id="node38" class="node">
<title>UI/hooks/useGetBooks.tsx</title>
<path fill="none" stroke="#cfffac" d="M1048.33,-908C1048.33,-908 887.67,-908 887.67,-908 883.83,-908 880,-904.17 880,-900.33 880,-900.33 880,-892.67 880,-892.67 880,-888.83 883.83,-885 887.67,-885 887.67,-885 1048.33,-885 1048.33,-885 1052.17,-885 1056,-888.83 1056,-892.67 1056,-892.67 1056,-900.33 1056,-900.33 1056,-904.17 1052.17,-908 1048.33,-908"/>
<text text-anchor="middle" x="968" y="-892.8" font-family="Arial" font-size="14.00" fill="#cfffac">UI/hooks/useGetBooks.tsx</text>
</g>
<!-- UI/pages/Reviews/ReviewPage.tsx&#45;&gt;UI/hooks/useGetBooks.tsx -->
<g id="edge91" class="edge">
<title>UI/pages/Reviews/ReviewPage.tsx&#45;&gt;UI/hooks/useGetBooks.tsx</title>
<path fill="none" stroke="#757575" d="M646.68,-748.26C674.73,-775.72 749.33,-844.12 826,-875.5 839.81,-881.15 854.94,-885.31 869.99,-888.36"/>
<polygon fill="#757575" stroke="#757575" points="869.39,-891.8 879.86,-890.2 870.68,-884.92 869.39,-891.8"/>
</g>
<!-- UI/pages/Reviews/helpers.ts -->
<g id="node54" class="node">
<title>UI/pages/Reviews/helpers.ts</title>
<path fill="none" stroke="#cfffac" d="M1054.33,-867C1054.33,-867 881.67,-867 881.67,-867 877.83,-867 874,-863.17 874,-859.33 874,-859.33 874,-851.67 874,-851.67 874,-847.83 877.83,-844 881.67,-844 881.67,-844 1054.33,-844 1054.33,-844 1058.17,-844 1062,-847.83 1062,-851.67 1062,-851.67 1062,-859.33 1062,-859.33 1062,-863.17 1058.17,-867 1054.33,-867"/>
<text text-anchor="middle" x="968" y="-851.8" font-family="Arial" font-size="14.00" fill="#cfffac">UI/pages/Reviews/helpers.ts</text>
</g>
<!-- UI/pages/Reviews/ReviewPage.tsx&#45;&gt;UI/pages/Reviews/helpers.ts -->
<g id="edge92" class="edge">
<title>UI/pages/Reviews/ReviewPage.tsx&#45;&gt;UI/pages/Reviews/helpers.ts</title>
<path fill="none" stroke="#757575" d="M652.58,-748.03C685.26,-768.89 758.23,-812.72 826,-834.5 838.11,-838.39 851.04,-841.57 863.98,-844.16"/>
<polygon fill="#757575" stroke="#757575" points="863.38,-847.61 873.85,-846.03 864.68,-840.73 863.38,-847.61"/>
</g>
<!-- business/functions/date.ts -->
<g id="node55" class="node">
<title>business/functions/date.ts</title>
<path fill="none" stroke="#cfffac" d="M1046.33,-826C1046.33,-826 889.67,-826 889.67,-826 885.83,-826 882,-822.17 882,-818.33 882,-818.33 882,-810.67 882,-810.67 882,-806.83 885.83,-803 889.67,-803 889.67,-803 1046.33,-803 1046.33,-803 1050.17,-803 1054,-806.83 1054,-810.67 1054,-810.67 1054,-818.33 1054,-818.33 1054,-822.17 1050.17,-826 1046.33,-826"/>
<text text-anchor="middle" x="968" y="-810.8" font-family="Arial" font-size="14.00" fill="#cfffac">business/functions/date.ts</text>
</g>
<!-- UI/pages/Reviews/ReviewPage.tsx&#45;&gt;business/functions/date.ts -->
<g id="edge93" class="edge">
<title>UI/pages/Reviews/ReviewPage.tsx&#45;&gt;business/functions/date.ts</title>
<path fill="none" stroke="#757575" d="M673.54,-748.01C711.95,-759.24 772.72,-776.36 826,-788.5 845.93,-793.04 867.59,-797.35 887.81,-801.1"/>
<polygon fill="#757575" stroke="#757575" points="887.45,-804.59 897.92,-802.95 888.71,-797.7 887.45,-804.59"/>
</g>
<!-- business/models/User.ts -->
<g id="node13" class="node">
<title>business/models/User.ts</title>
<path fill="none" stroke="#cfffac" d="M1377.33,-1070C1377.33,-1070 1228.67,-1070 1228.67,-1070 1224.83,-1070 1221,-1066.17 1221,-1062.33 1221,-1062.33 1221,-1054.67 1221,-1054.67 1221,-1050.83 1224.83,-1047 1228.67,-1047 1228.67,-1047 1377.33,-1047 1377.33,-1047 1381.17,-1047 1385,-1050.83 1385,-1054.67 1385,-1054.67 1385,-1062.33 1385,-1062.33 1385,-1066.17 1381.17,-1070 1377.33,-1070"/>
<text text-anchor="middle" x="1303" y="-1054.8" font-family="Arial" font-size="14.00" fill="#cfffac">business/models/User.ts</text>
</g>
<!-- UI/components/Cards/UserDetails.tsx&#45;&gt;business/models/User.ts -->
<g id="edge11" class="edge">
<title>UI/components/Cards/UserDetails.tsx&#45;&gt;business/models/User.ts</title>
<path fill="none" stroke="#757575" d="M982.67,-632.3C1011.64,-658.2 1079.08,-723.29 1110,-793.5 1154.36,-894.22 1067.47,-961.4 1146,-1038.5 1163.13,-1055.32 1186.9,-1062.95 1210.73,-1065.71"/>
<polygon fill="#757575" stroke="#757575" points="1210.66,-1069.22 1220.92,-1066.61 1211.27,-1062.24 1210.66,-1069.22"/>
</g>
<!-- UI/components/Controllers/ErrorMessage.tsx -->
<g id="node15" class="node">
<title>UI/components/Controllers/ErrorMessage.tsx</title>
<path fill="none" stroke="#cfffac" d="M2092.33,-728C2092.33,-728 1820.67,-728 1820.67,-728 1816.83,-728 1813,-724.17 1813,-720.33 1813,-720.33 1813,-712.67 1813,-712.67 1813,-708.83 1816.83,-705 1820.67,-705 1820.67,-705 2092.33,-705 2092.33,-705 2096.17,-705 2100,-708.83 2100,-712.67 2100,-712.67 2100,-720.33 2100,-720.33 2100,-724.17 2096.17,-728 2092.33,-728"/>
<text text-anchor="middle" x="1956.5" y="-712.8" font-family="Arial" font-size="14.00" fill="#cfffac">UI/components/Controllers/ErrorMessage.tsx</text>
</g>
<!-- UI/components/Controllers/DatePicker.tsx&#45;&gt;UI/components/Controllers/ErrorMessage.tsx -->
<g id="edge12" class="edge">
<title>UI/components/Controllers/DatePicker.tsx&#45;&gt;UI/components/Controllers/ErrorMessage.tsx</title>
<path fill="none" stroke="#757575" d="M1770.06,-704.84C1780.89,-705.52 1791.89,-706.21 1802.84,-706.9"/>
<polygon fill="#757575" stroke="#757575" points="1802.69,-710.4 1812.89,-707.53 1803.13,-703.41 1802.69,-710.4"/>
</g>
<!-- UI/components/Controllers/HelperText.tsx -->
<g id="node16" class="node">
<title>UI/components/Controllers/HelperText.tsx</title>
<path fill="none" stroke="#cfffac" d="M2081.83,-687C2081.83,-687 1831.17,-687 1831.17,-687 1827.33,-687 1823.5,-683.17 1823.5,-679.33 1823.5,-679.33 1823.5,-671.67 1823.5,-671.67 1823.5,-667.83 1827.33,-664 1831.17,-664 1831.17,-664 2081.83,-664 2081.83,-664 2085.67,-664 2089.5,-667.83 2089.5,-671.67 2089.5,-671.67 2089.5,-679.33 2089.5,-679.33 2089.5,-683.17 2085.67,-687 2081.83,-687"/>
<text text-anchor="middle" x="1956.5" y="-671.8" font-family="Arial" font-size="14.00" fill="#cfffac">UI/components/Controllers/HelperText.tsx</text>
</g>
<!-- UI/components/Controllers/DatePicker.tsx&#45;&gt;UI/components/Controllers/HelperText.tsx -->
<g id="edge13" class="edge">
<title>UI/components/Controllers/DatePicker.tsx&#45;&gt;UI/components/Controllers/HelperText.tsx</title>
<path fill="none" stroke="#757575" d="M1770.06,-687.75C1784.25,-686.81 1798.73,-685.85 1813.04,-684.91"/>
<polygon fill="#757575" stroke="#757575" points="1813.66,-688.37 1823.41,-684.22 1813.2,-681.39 1813.66,-688.37"/>
</g>
<!-- UI/components/Controllers/Label.tsx -->
<g id="node17" class="node">
<title>UI/components/Controllers/Label.tsx</title>
<path fill="none" stroke="#cfffac" d="M2066.33,-646C2066.33,-646 1846.67,-646 1846.67,-646 1842.83,-646 1839,-642.17 1839,-638.33 1839,-638.33 1839,-630.67 1839,-630.67 1839,-626.83 1842.83,-623 1846.67,-623 1846.67,-623 2066.33,-623 2066.33,-623 2070.17,-623 2074,-626.83 2074,-630.67 2074,-630.67 2074,-638.33 2074,-638.33 2074,-642.17 2070.17,-646 2066.33,-646"/>
<text text-anchor="middle" x="1956.5" y="-630.8" font-family="Arial" font-size="14.00" fill="#cfffac">UI/components/Controllers/Label.tsx</text>
</g>
<!-- UI/components/Controllers/DatePicker.tsx&#45;&gt;UI/components/Controllers/Label.tsx -->
<g id="edge14" class="edge">
<title>UI/components/Controllers/DatePicker.tsx&#45;&gt;UI/components/Controllers/Label.tsx</title>
<path fill="none" stroke="#757575" d="M1743.28,-684.93C1754.82,-682.39 1766.26,-679.28 1777,-675.5 1794.47,-669.34 1795.5,-660.57 1813,-654.5 1819.5,-652.25 1826.25,-650.24 1833.13,-648.47"/>
<polygon fill="#757575" stroke="#757575" points="1834.37,-651.77 1843.27,-646.03 1832.73,-644.96 1834.37,-651.77"/>
</g>
<!-- UI/components/Controllers/NumberInput.tsx&#45;&gt;UI/components/Controllers/ErrorMessage.tsx -->
<g id="edge15" class="edge">
<title>UI/components/Controllers/NumberInput.tsx&#45;&gt;UI/components/Controllers/ErrorMessage.tsx</title>
<path fill="none" stroke="#757575" d="M1745.81,-667.03C1756.47,-669.35 1767.03,-672.14 1777,-675.5 1794.35,-681.34 1795.66,-689.63 1813,-695.5 1821.17,-698.27 1829.73,-700.67 1838.43,-702.76"/>
<polygon fill="#757575" stroke="#757575" points="1837.76,-706.2 1848.28,-704.99 1839.3,-699.37 1837.76,-706.2"/>
</g>
<!-- UI/components/Controllers/NumberInput.tsx&#45;&gt;UI/components/Controllers/HelperText.tsx -->
<g id="edge16" class="edge">
<title>UI/components/Controllers/NumberInput.tsx&#45;&gt;UI/components/Controllers/HelperText.tsx</title>
<path fill="none" stroke="#757575" d="M1777.44,-664.3C1789.17,-665.04 1801.04,-665.79 1812.79,-666.52"/>
<polygon fill="#757575" stroke="#757575" points="1812.87,-670.04 1823.07,-667.17 1813.31,-663.05 1812.87,-670.04"/>
</g>
<!-- UI/components/Controllers/NumberInput.tsx&#45;&gt;UI/components/Controllers/Label.tsx -->
<g id="edge17" class="edge">
<title>UI/components/Controllers/NumberInput.tsx&#45;&gt;UI/components/Controllers/Label.tsx</title>
<path fill="none" stroke="#757575" d="M1777.44,-646.26C1794.42,-645.14 1811.68,-644 1828.45,-642.89"/>
<polygon fill="#757575" stroke="#757575" points="1829.08,-646.36 1838.83,-642.2 1828.62,-639.37 1829.08,-646.36"/>
</g>
<!-- UI/components/Controllers/Select.tsx&#45;&gt;UI/components/Controllers/ErrorMessage.tsx -->
<g id="edge18" class="edge">
<title>UI/components/Controllers/Select.tsx&#45;&gt;UI/components/Controllers/ErrorMessage.tsx</title>
<path fill="none" stroke="#757575" d="M1756.06,-623.64C1763.44,-626.56 1770.49,-630.14 1777,-634.5 1803.16,-652.01 1786.88,-677.93 1813,-695.5 1815.61,-697.26 1818.31,-698.89 1821.09,-700.41"/>
<polygon fill="#757575" stroke="#757575" points="1819.66,-703.61 1830.18,-704.89 1822.75,-697.33 1819.66,-703.61"/>
</g>
<!-- UI/components/Controllers/Select.tsx&#45;&gt;UI/components/Controllers/HelperText.tsx -->
<g id="edge19" class="edge">
<title>UI/components/Controllers/Select.tsx&#45;&gt;UI/components/Controllers/HelperText.tsx</title>
<path fill="none" stroke="#757575" d="M1745.81,-626.03C1756.47,-628.35 1767.03,-631.14 1777,-634.5 1794.35,-640.34 1795.66,-648.63 1813,-654.5 1821.17,-657.27 1829.73,-659.67 1838.43,-661.76"/>
<polygon fill="#757575" stroke="#757575" points="1837.76,-665.2 1848.28,-663.99 1839.3,-658.37 1837.76,-665.2"/>
</g>
<!-- UI/components/Controllers/Select.tsx&#45;&gt;UI/components/Controllers/Label.tsx -->
<g id="edge20" class="edge">
<title>UI/components/Controllers/Select.tsx&#45;&gt;UI/components/Controllers/Label.tsx</title>
<path fill="none" stroke="#757575" d="M1756.36,-621.98C1779.98,-623.46 1804.86,-625.03 1828.73,-626.53"/>
<polygon fill="#757575" stroke="#757575" points="1828.69,-630.03 1838.89,-627.17 1829.13,-623.05 1828.69,-630.03"/>
</g>
<!-- UI/components/Controllers/StarRating.tsx&#45;&gt;UI/components/Controllers/ErrorMessage.tsx -->
<g id="edge21" class="edge">
<title>UI/components/Controllers/StarRating.tsx&#45;&gt;UI/components/Controllers/ErrorMessage.tsx</title>
<path fill="none" stroke="#757575" d="M1721.03,-766.99C1739.51,-764.15 1758.95,-760.93 1777,-757.5 1818.23,-749.67 1864.39,-739.02 1899.43,-730.54"/>
<polygon fill="#757575" stroke="#757575" points="1900.59,-733.86 1909.47,-728.09 1898.93,-727.06 1900.59,-733.86"/>
</g>
<!-- UI/components/Controllers/StarRating.tsx&#45;&gt;UI/components/Controllers/HelperText.tsx -->
<g id="edge22" class="edge">
<title>UI/components/Controllers/StarRating.tsx&#45;&gt;UI/components/Controllers/HelperText.tsx</title>
<path fill="none" stroke="#757575" d="M1759.88,-766.93C1765.88,-764.27 1771.63,-761.15 1777,-757.5 1803.35,-739.59 1786.56,-713.28 1813,-695.5 1814.94,-694.2 1816.92,-692.96 1818.95,-691.79"/>
<polygon fill="#757575" stroke="#757575" points="1820.81,-694.77 1828.09,-687.08 1817.6,-688.55 1820.81,-694.77"/>
</g>
<!-- UI/components/Controllers/StarRating.tsx&#45;&gt;UI/components/Controllers/Label.tsx -->
<g id="edge23" class="edge">
<title>UI/components/Controllers/StarRating.tsx&#45;&gt;UI/components/Controllers/Label.tsx</title>
<path fill="none" stroke="#757575" d="M1763.05,-766.91C1767.98,-764.21 1772.66,-761.09 1777,-757.5 1814.34,-726.56 1775.51,-685.26 1813,-654.5 1818.07,-650.34 1823.6,-646.82 1829.44,-643.86"/>
<polygon fill="#757575" stroke="#757575" points="1831.15,-646.93 1838.85,-639.65 1828.29,-640.54 1831.15,-646.93"/>
</g>
<!-- UI/components/Controllers/TextArea.tsx&#45;&gt;UI/components/Controllers/ErrorMessage.tsx -->
<g id="edge24" class="edge">
<title>UI/components/Controllers/TextArea.tsx&#45;&gt;UI/components/Controllers/ErrorMessage.tsx</title>
<path fill="none" stroke="#757575" d="M1764.1,-729.14C1776.74,-728.31 1789.66,-727.45 1802.54,-726.6"/>
<polygon fill="#757575" stroke="#757575" points="1803.1,-730.07 1812.85,-725.92 1802.64,-723.09 1803.1,-730.07"/>
</g>
<!-- UI/components/Controllers/TextArea.tsx&#45;&gt;UI/components/Controllers/HelperText.tsx -->
<g id="edge25" class="edge">
<title>UI/components/Controllers/TextArea.tsx&#45;&gt;UI/components/Controllers/HelperText.tsx</title>
<path fill="none" stroke="#757575" d="M1743.28,-725.93C1754.82,-723.39 1766.26,-720.28 1777,-716.5 1794.47,-710.34 1795.5,-701.57 1813,-695.5 1819.5,-693.25 1826.25,-691.24 1833.13,-689.47"/>
<polygon fill="#757575" stroke="#757575" points="1834.37,-692.77 1843.27,-687.03 1832.73,-685.96 1834.37,-692.77"/>
</g>
<!-- UI/components/Controllers/TextArea.tsx&#45;&gt;UI/components/Controllers/Label.tsx -->
<g id="edge26" class="edge">
<title>UI/components/Controllers/TextArea.tsx&#45;&gt;UI/components/Controllers/Label.tsx</title>
<path fill="none" stroke="#757575" d="M1759.88,-725.93C1765.88,-723.27 1771.63,-720.15 1777,-716.5 1803.35,-698.59 1786.56,-672.28 1813,-654.5 1818.24,-650.98 1823.83,-647.96 1829.65,-645.37"/>
<polygon fill="#757575" stroke="#757575" points="1830.99,-648.61 1838.98,-641.66 1828.4,-642.1 1830.99,-648.61"/>
</g>
<!-- UI/components/Controllers/TextInput.tsx&#45;&gt;UI/components/Controllers/ErrorMessage.tsx -->
<g id="edge27" class="edge">
<title>UI/components/Controllers/TextInput.tsx&#45;&gt;UI/components/Controllers/ErrorMessage.tsx</title>
<path fill="none" stroke="#757575" d="M1695.18,-427C1724.06,-435.75 1757.05,-450.83 1777,-476.5 1837.54,-554.38 1742.67,-626.33 1813,-695.5 1814.11,-696.6 1815.26,-697.65 1816.43,-698.67"/>
<polygon fill="#757575" stroke="#757575" points="1814.47,-701.57 1824.56,-704.81 1818.69,-695.99 1814.47,-701.57"/>
</g>
<!-- UI/components/Controllers/TextInput.tsx&#45;&gt;UI/components/Controllers/HelperText.tsx -->
<g id="edge28" class="edge">
<title>UI/components/Controllers/TextInput.tsx&#45;&gt;UI/components/Controllers/HelperText.tsx</title>
<path fill="none" stroke="#757575" d="M1694.1,-427.09C1723.04,-435.89 1756.41,-450.99 1777,-476.5 1827.69,-539.31 1754.43,-598.97 1813,-654.5 1814.16,-655.6 1815.36,-656.66 1816.58,-657.68"/>
<polygon fill="#757575" stroke="#757575" points="1814.89,-660.78 1825.04,-663.84 1819.01,-655.12 1814.89,-660.78"/>
</g>
<!-- UI/components/Controllers/TextInput.tsx&#45;&gt;UI/components/Controllers/Label.tsx -->
<g id="edge29" class="edge">
<title>UI/components/Controllers/TextInput.tsx&#45;&gt;UI/components/Controllers/Label.tsx</title>
<path fill="none" stroke="#757575" d="M1671.68,-427.02C1700.87,-437.65 1743.36,-455.02 1777,-476.5 1842.27,-518.19 1907.5,-583.36 1937.87,-615.4"/>
<polygon fill="#757575" stroke="#757575" points="1935.42,-617.91 1944.82,-622.8 1940.52,-613.12 1935.42,-617.91"/>
</g>
<!-- UI/components/Message/index.tsx -->
<g id="node23" class="node">
<title>UI/components/Message/index.tsx</title>
<path fill="none" stroke="#cfffac" d="M216.33,-518C216.33,-518 7.67,-518 7.67,-518 3.83,-518 0,-514.17 0,-510.33 0,-510.33 0,-502.67 0,-502.67 0,-498.83 3.83,-495 7.67,-495 7.67,-495 216.33,-495 216.33,-495 220.17,-495 224,-498.83 224,-502.67 224,-502.67 224,-510.33 224,-510.33 224,-514.17 220.17,-518 216.33,-518"/>
<text text-anchor="middle" x="112" y="-502.8" font-family="Arial" font-size="14.00" fill="#cfffac">UI/components/Message/index.tsx</text>
</g>
<!-- UI/components/Navigation/NavigationAuth.tsx -->
<g id="node24" class="node">
<title>UI/components/Navigation/NavigationAuth.tsx</title>
<path fill="none" stroke="#cfffac" d="M1441.33,-265C1441.33,-265 1164.67,-265 1164.67,-265 1160.83,-265 1157,-261.17 1157,-257.33 1157,-257.33 1157,-249.67 1157,-249.67 1157,-245.83 1160.83,-242 1164.67,-242 1164.67,-242 1441.33,-242 1441.33,-242 1445.17,-242 1449,-245.83 1449,-249.67 1449,-249.67 1449,-257.33 1449,-257.33 1449,-261.17 1445.17,-265 1441.33,-265"/>
<text text-anchor="middle" x="1303" y="-249.8" font-family="Arial" font-size="14.00" fill="#cfffac">UI/components/Navigation/NavigationAuth.tsx</text>
</g>
<!-- UI/components/Navigation/NavigationBar.tsx&#45;&gt;UI/components/Navigation/NavigationAuth.tsx -->
<g id="edge30" class="edge">
<title>UI/components/Navigation/NavigationBar.tsx&#45;&gt;UI/components/Navigation/NavigationAuth.tsx</title>
<path fill="none" stroke="#757575" d="M1110.22,-253.5C1122.27,-253.5 1134.5,-253.5 1146.65,-253.5"/>
<polygon fill="#757575" stroke="#757575" points="1146.83,-257 1156.83,-253.5 1146.83,-250 1146.83,-257"/>
</g>
<!-- UI/components/Navigation/NavigationDesktop.tsx -->
<g id="node26" class="node">
<title>UI/components/Navigation/NavigationDesktop.tsx</title>
<path fill="none" stroke="#c6c5fe" d="M1452.33,-23C1452.33,-23 1153.67,-23 1153.67,-23 1149.83,-23 1146,-19.17 1146,-15.33 1146,-15.33 1146,-7.67 1146,-7.67 1146,-3.83 1149.83,0 1153.67,0 1153.67,0 1452.33,0 1452.33,0 1456.17,0 1460,-3.83 1460,-7.67 1460,-7.67 1460,-15.33 1460,-15.33 1460,-19.17 1456.17,-23 1452.33,-23"/>
<text text-anchor="middle" x="1303" y="-7.8" font-family="Arial" font-size="14.00" fill="#c6c5fe">UI/components/Navigation/NavigationDesktop.tsx</text>
</g>
<!-- UI/components/Navigation/NavigationBar.tsx&#45;&gt;UI/components/Navigation/NavigationDesktop.tsx -->
<g id="edge31" class="edge">
<title>UI/components/Navigation/NavigationBar.tsx&#45;&gt;UI/components/Navigation/NavigationDesktop.tsx</title>
<path fill="none" stroke="#757575" d="M1098.19,-241.86C1102.4,-239.14 1106.36,-236.03 1110,-232.5 1175.11,-169.28 1080.25,-94.06 1146,-31.5 1146.82,-30.72 1147.65,-29.97 1148.49,-29.23"/>
<polygon fill="#757575" stroke="#757575" points="1150.65,-31.98 1156.43,-23.11 1146.37,-26.44 1150.65,-31.98"/>
</g>
<!-- UI/components/Navigation/NavigationMobile.tsx -->
<g id="node27" class="node">
<title>UI/components/Navigation/NavigationMobile.tsx</title>
<path fill="none" stroke="#c6c5fe" d="M1447.83,-64C1447.83,-64 1158.17,-64 1158.17,-64 1154.33,-64 1150.5,-60.17 1150.5,-56.33 1150.5,-56.33 1150.5,-48.67 1150.5,-48.67 1150.5,-44.83 1154.33,-41 1158.17,-41 1158.17,-41 1447.83,-41 1447.83,-41 1451.67,-41 1455.5,-44.83 1455.5,-48.67 1455.5,-48.67 1455.5,-56.33 1455.5,-56.33 1455.5,-60.17 1451.67,-64 1447.83,-64"/>
<text text-anchor="middle" x="1303" y="-48.8" font-family="Arial" font-size="14.00" fill="#c6c5fe">UI/components/Navigation/NavigationMobile.tsx</text>
</g>
<!-- UI/components/Navigation/NavigationBar.tsx&#45;&gt;UI/components/Navigation/NavigationMobile.tsx -->
<g id="edge32" class="edge">
<title>UI/components/Navigation/NavigationBar.tsx&#45;&gt;UI/components/Navigation/NavigationMobile.tsx</title>
<path fill="none" stroke="#757575" d="M1085.74,-241.89C1094.14,-239.31 1102.31,-236.22 1110,-232.5 1189.59,-194.01 1258.55,-110.87 1287.48,-72.57"/>
<polygon fill="#757575" stroke="#757575" points="1290.5,-74.38 1293.65,-64.27 1284.88,-70.21 1290.5,-74.38"/>
</g>
<!-- UI/components/Navigation/types.ts -->
<g id="node28" class="node">
<title>UI/components/Navigation/types.ts</title>
<path fill="none" stroke="#cfffac" d="M2061.83,-44C2061.83,-44 1851.17,-44 1851.17,-44 1847.33,-44 1843.5,-40.17 1843.5,-36.33 1843.5,-36.33 1843.5,-28.67 1843.5,-28.67 1843.5,-24.83 1847.33,-21 1851.17,-21 1851.17,-21 2061.83,-21 2061.83,-21 2065.67,-21 2069.5,-24.83 2069.5,-28.67 2069.5,-28.67 2069.5,-36.33 2069.5,-36.33 2069.5,-40.17 2065.67,-44 2061.83,-44"/>
<text text-anchor="middle" x="1956.5" y="-28.8" font-family="Arial" font-size="14.00" fill="#cfffac">UI/components/Navigation/types.ts</text>
</g>
<!-- UI/components/Navigation/NavigationDesktop.tsx&#45;&gt;UI/components/Navigation/types.ts -->
<g id="edge33" class="edge">
<title>UI/components/Navigation/NavigationDesktop.tsx&#45;&gt;UI/components/Navigation/types.ts</title>
<path fill="none" stroke="#757575" d="M1460.19,-6.91C1552.43,-5.35 1671.45,-5.31 1777,-11.5 1805.58,-13.18 1836.59,-16.35 1864.63,-19.73"/>
<polygon fill="#757575" stroke="#757575" points="1864.46,-23.23 1874.82,-20.98 1865.32,-16.28 1864.46,-23.23"/>
</g>
<!-- UI/hooks/useNaveItems.tsx -->
<g id="node29" class="node">
<title>UI/hooks/useNaveItems.tsx</title>
<path fill="none" stroke="#c6c5fe" d="M1719.83,-44C1719.83,-44 1553.17,-44 1553.17,-44 1549.33,-44 1545.5,-40.17 1545.5,-36.33 1545.5,-36.33 1545.5,-28.67 1545.5,-28.67 1545.5,-24.83 1549.33,-21 1553.17,-21 1553.17,-21 1719.83,-21 1719.83,-21 1723.67,-21 1727.5,-24.83 1727.5,-28.67 1727.5,-28.67 1727.5,-36.33 1727.5,-36.33 1727.5,-40.17 1723.67,-44 1719.83,-44"/>
<text text-anchor="middle" x="1636.5" y="-28.8" font-family="Arial" font-size="14.00" fill="#c6c5fe">UI/hooks/useNaveItems.tsx</text>
</g>
<!-- UI/components/Navigation/NavigationDesktop.tsx&#45;&gt;UI/hooks/useNaveItems.tsx -->
<g id="edge34" class="edge">
<title>UI/components/Navigation/NavigationDesktop.tsx&#45;&gt;UI/hooks/useNaveItems.tsx</title>
<path fill="none" stroke="#757575" d="M1460.04,-21.39C1485.61,-23 1511.49,-24.64 1535.23,-26.15"/>
<polygon fill="#757575" stroke="#757575" points="1535.06,-29.64 1545.27,-26.78 1535.51,-22.66 1535.06,-29.64"/>
</g>
<!-- UI/components/Navigation/NavigationMobile.tsx&#45;&gt;UI/components/Navigation/types.ts -->
<g id="edge35" class="edge">
<title>UI/components/Navigation/NavigationMobile.tsx&#45;&gt;UI/components/Navigation/types.ts</title>
<path fill="none" stroke="#757575" d="M1455.63,-56.79C1548.48,-58.36 1669.7,-58.49 1777,-52.5 1804.06,-50.99 1833.31,-48.2 1860.16,-45.17"/>
<polygon fill="#757575" stroke="#757575" points="1860.78,-48.62 1870.32,-44 1859.98,-41.67 1860.78,-48.62"/>
</g>
<!-- UI/components/Navigation/NavigationMobile.tsx&#45;&gt;UI/hooks/useNaveItems.tsx -->
<g id="edge36" class="edge">
<title>UI/components/Navigation/NavigationMobile.tsx&#45;&gt;UI/hooks/useNaveItems.tsx</title>
<path fill="none" stroke="#757575" d="M1455.68,-43.35C1482.65,-41.72 1510.13,-40.06 1535.21,-38.55"/>
<polygon fill="#757575" stroke="#757575" points="1535.67,-42.03 1545.44,-37.93 1535.25,-35.04 1535.67,-42.03"/>
</g>
<!-- UI/hooks/useNaveItems.tsx&#45;&gt;UI/components/Navigation/types.ts -->
<g id="edge38" class="edge">
<title>UI/hooks/useNaveItems.tsx&#45;&gt;UI/components/Navigation/types.ts</title>
<path fill="none" stroke="#757575" d="M1727.78,-32.5C1760.53,-32.5 1798.11,-32.5 1833.17,-32.5"/>
<polygon fill="#757575" stroke="#757575" points="1833.47,-36 1843.47,-32.5 1833.47,-29 1833.47,-36"/>
</g>
<!-- UI/components/Table/Pagination.tsx -->
<g id="node30" class="node">
<title>UI/components/Table/Pagination.tsx</title>
<path fill="none" stroke="#c6c5fe" d="M1411.83,-591C1411.83,-591 1194.17,-591 1194.17,-591 1190.33,-591 1186.5,-587.17 1186.5,-583.33 1186.5,-583.33 1186.5,-575.67 1186.5,-575.67 1186.5,-571.83 1190.33,-568 1194.17,-568 1194.17,-568 1411.83,-568 1411.83,-568 1415.67,-568 1419.5,-571.83 1419.5,-575.67 1419.5,-575.67 1419.5,-583.33 1419.5,-583.33 1419.5,-587.17 1415.67,-591 1411.83,-591"/>
<text text-anchor="middle" x="1303" y="-575.8" font-family="Arial" font-size="14.00" fill="#c6c5fe">UI/components/Table/Pagination.tsx</text>
</g>
<!-- UI/components/Table/Pagination.tsx&#45;&gt;UI/components/Controllers/Select.tsx -->
<g id="edge37" class="edge">
<title>UI/components/Table/Pagination.tsx&#45;&gt;UI/components/Controllers/Select.tsx</title>
<path fill="none" stroke="#757575" d="M1413,-591.01C1446.01,-594.49 1482.43,-598.34 1516.08,-601.89"/>
<polygon fill="#757575" stroke="#757575" points="1516.12,-605.41 1526.43,-602.98 1516.85,-598.45 1516.12,-605.41"/>
</g>
<!-- UI/components/Table/TableOverView.tsx -->
<g id="node31" class="node">
<title>UI/components/Table/TableOverView.tsx</title>
<path fill="none" stroke="#cfffac" d="M1425.33,-550C1425.33,-550 1180.67,-550 1180.67,-550 1176.83,-550 1173,-546.17 1173,-542.33 1173,-542.33 1173,-534.67 1173,-534.67 1173,-530.83 1176.83,-527 1180.67,-527 1180.67,-527 1425.33,-527 1425.33,-527 1429.17,-527 1433,-530.83 1433,-534.67 1433,-534.67 1433,-542.33 1433,-542.33 1433,-546.17 1429.17,-550 1425.33,-550"/>
<text text-anchor="middle" x="1303" y="-534.8" font-family="Arial" font-size="14.00" fill="#cfffac">UI/components/Table/TableOverView.tsx</text>
</g>
<!-- UI/hooks/useGetAuthorStatsPage.tsx -->
<g id="node34" class="node">
<title>UI/hooks/useGetAuthorStatsPage.tsx</title>
<path fill="none" stroke="#cfffac" d="M1415.83,-632C1415.83,-632 1190.17,-632 1190.17,-632 1186.33,-632 1182.5,-628.17 1182.5,-624.33 1182.5,-624.33 1182.5,-616.67 1182.5,-616.67 1182.5,-612.83 1186.33,-609 1190.17,-609 1190.17,-609 1415.83,-609 1415.83,-609 1419.67,-609 1423.5,-612.83 1423.5,-616.67 1423.5,-616.67 1423.5,-624.33 1423.5,-624.33 1423.5,-628.17 1419.67,-632 1415.83,-632"/>
<text text-anchor="middle" x="1303" y="-616.8" font-family="Arial" font-size="14.00" fill="#cfffac">UI/hooks/useGetAuthorStatsPage.tsx</text>
</g>
<!-- UI/hooks/useGetBookStatsGenre.tsx -->
<g id="node36" class="node">
<title>UI/hooks/useGetBookStatsGenre.tsx</title>
<path fill="none" stroke="#cfffac" d="M1414.83,-347C1414.83,-347 1191.17,-347 1191.17,-347 1187.33,-347 1183.5,-343.17 1183.5,-339.33 1183.5,-339.33 1183.5,-331.67 1183.5,-331.67 1183.5,-327.83 1187.33,-324 1191.17,-324 1191.17,-324 1414.83,-324 1414.83,-324 1418.67,-324 1422.5,-327.83 1422.5,-331.67 1422.5,-331.67 1422.5,-339.33 1422.5,-339.33 1422.5,-343.17 1418.67,-347 1414.83,-347"/>
<text text-anchor="middle" x="1303" y="-331.8" font-family="Arial" font-size="14.00" fill="#cfffac">UI/hooks/useGetBookStatsGenre.tsx</text>
</g>
<!-- UI/hooks/useGetBookStatsLanguage.tsx -->
<g id="node37" class="node">
<title>UI/hooks/useGetBookStatsLanguage.tsx</title>
<path fill="none" stroke="#cfffac" d="M1425.33,-306C1425.33,-306 1180.67,-306 1180.67,-306 1176.83,-306 1173,-302.17 1173,-298.33 1173,-298.33 1173,-290.67 1173,-290.67 1173,-286.83 1176.83,-283 1180.67,-283 1180.67,-283 1425.33,-283 1425.33,-283 1429.17,-283 1433,-286.83 1433,-290.67 1433,-290.67 1433,-298.33 1433,-298.33 1433,-302.17 1429.17,-306 1425.33,-306"/>
<text text-anchor="middle" x="1303" y="-290.8" font-family="Arial" font-size="14.00" fill="#cfffac">UI/hooks/useGetBookStatsLanguage.tsx</text>
</g>
<!-- UI/hooks/useGetBookworms.tsx -->
<g id="node39" class="node">
<title>UI/hooks/useGetBookworms.tsx</title>
<path fill="none" stroke="#cfffac" d="M209.33,-900C209.33,-900 14.67,-900 14.67,-900 10.83,-900 7,-896.17 7,-892.33 7,-892.33 7,-884.67 7,-884.67 7,-880.83 10.83,-877 14.67,-877 14.67,-877 209.33,-877 209.33,-877 213.17,-877 217,-880.83 217,-884.67 217,-884.67 217,-892.33 217,-892.33 217,-896.17 213.17,-900 209.33,-900"/>
<text text-anchor="middle" x="112" y="-884.8" font-family="Arial" font-size="14.00" fill="#cfffac">UI/hooks/useGetBookworms.tsx</text>
</g>
<!-- UI/hooks/useGetGenres.tsx -->
<g id="node40" class="node">
<title>UI/hooks/useGetGenres.tsx</title>
<path fill="none" stroke="#cfffac" d="M1387.33,-427C1387.33,-427 1218.67,-427 1218.67,-427 1214.83,-427 1211,-423.17 1211,-419.33 1211,-419.33 1211,-411.67 1211,-411.67 1211,-407.83 1214.83,-404 1218.67,-404 1218.67,-404 1387.33,-404 1387.33,-404 1391.17,-404 1395,-407.83 1395,-411.67 1395,-411.67 1395,-419.33 1395,-419.33 1395,-423.17 1391.17,-427 1387.33,-427"/>
<text text-anchor="middle" x="1303" y="-411.8" font-family="Arial" font-size="14.00" fill="#cfffac">UI/hooks/useGetGenres.tsx</text>
</g>
<!-- UI/hooks/useGetLanguages.tsx -->
<g id="node41" class="node">
<title>UI/hooks/useGetLanguages.tsx</title>
<path fill="none" stroke="#cfffac" d="M1398.33,-468C1398.33,-468 1207.67,-468 1207.67,-468 1203.83,-468 1200,-464.17 1200,-460.33 1200,-460.33 1200,-452.67 1200,-452.67 1200,-448.83 1203.83,-445 1207.67,-445 1207.67,-445 1398.33,-445 1398.33,-445 1402.17,-445 1406,-448.83 1406,-452.67 1406,-452.67 1406,-460.33 1406,-460.33 1406,-464.17 1402.17,-468 1398.33,-468"/>
<text text-anchor="middle" x="1303" y="-452.8" font-family="Arial" font-size="14.00" fill="#cfffac">UI/hooks/useGetLanguages.tsx</text>
</g>
<!-- UI/pages/Authors/AuthorsChart.tsx&#45;&gt;UI/hooks/useGetAuthorStatsPage.tsx -->
<g id="edge47" class="edge">
<title>UI/pages/Authors/AuthorsChart.tsx&#45;&gt;UI/hooks/useGetAuthorStatsPage.tsx</title>
<path fill="none" stroke="#757575" d="M1080.71,-546.71C1090.93,-549.71 1100.87,-553.56 1110,-558.5 1131.33,-570.03 1124.63,-588.04 1146,-599.5 1154.4,-604 1163.41,-607.67 1172.7,-610.64"/>
<polygon fill="#757575" stroke="#757575" points="1171.9,-614.05 1182.48,-613.5 1173.86,-607.33 1171.9,-614.05"/>
</g>
<!-- UI/pages/Authors/AuthorsTable.tsx&#45;&gt;UI/components/Table/Pagination.tsx -->
<g id="edge52" class="edge">
<title>UI/pages/Authors/AuthorsTable.tsx&#45;&gt;UI/components/Table/Pagination.tsx</title>
<path fill="none" stroke="#757575" d="M1080.34,-505.6C1090.7,-508.61 1100.76,-512.5 1110,-517.5 1131.33,-529.03 1124.63,-547.04 1146,-558.5 1155.5,-563.59 1165.77,-567.61 1176.35,-570.77"/>
<polygon fill="#757575" stroke="#757575" points="1175.58,-574.19 1186.15,-573.44 1177.42,-567.43 1175.58,-574.19"/>
</g>
<!-- UI/pages/Authors/AuthorsTable.tsx&#45;&gt;UI/components/Table/TableOverView.tsx -->
<g id="edge53" class="edge">
<title>UI/pages/Authors/AuthorsTable.tsx&#45;&gt;UI/components/Table/TableOverView.tsx</title>
<path fill="none" stroke="#757575" d="M1062.65,-509.03C1104.94,-514.24 1155.05,-520.41 1198.47,-525.75"/>
<polygon fill="#757575" stroke="#757575" points="1198.13,-529.24 1208.48,-526.99 1198.98,-522.29 1198.13,-529.24"/>
</g>
<!-- business/models/Author.ts -->
<g id="node45" class="node">
<title>business/models/Author.ts</title>
<path fill="none" stroke="#cfffac" d="M1382.83,-906C1382.83,-906 1223.17,-906 1223.17,-906 1219.33,-906 1215.5,-902.17 1215.5,-898.33 1215.5,-898.33 1215.5,-890.67 1215.5,-890.67 1215.5,-886.83 1219.33,-883 1223.17,-883 1223.17,-883 1382.83,-883 1382.83,-883 1386.67,-883 1390.5,-886.83 1390.5,-890.67 1390.5,-890.67 1390.5,-898.33 1390.5,-898.33 1390.5,-902.17 1386.67,-906 1382.83,-906"/>
<text text-anchor="middle" x="1303" y="-890.8" font-family="Arial" font-size="14.00" fill="#cfffac">business/models/Author.ts</text>
</g>
<!-- UI/pages/Authors/AuthorsTable.tsx&#45;&gt;business/models/Author.ts -->
<g id="edge54" class="edge">
<title>UI/pages/Authors/AuthorsTable.tsx&#45;&gt;business/models/Author.ts</title>
<path fill="none" stroke="#757575" d="M1080.02,-498.45C1091.26,-502.64 1101.61,-508.76 1110,-517.5 1165.09,-574.84 1090.71,-816.35 1146,-873.5 1161.49,-889.51 1182.93,-897.45 1204.97,-900.84"/>
<polygon fill="#757575" stroke="#757575" points="1204.76,-904.34 1215.11,-902.09 1205.61,-897.4 1204.76,-904.34"/>
</g>
<!-- UI/pages/BookWorms/BookwormsTable.tsx&#45;&gt;UI/components/Table/Pagination.tsx -->
<g id="edge60" class="edge">
<title>UI/pages/BookWorms/BookwormsTable.tsx&#45;&gt;UI/components/Table/Pagination.tsx</title>
<path fill="none" stroke="#757575" d="M1106.85,-579.5C1129.92,-579.5 1153.74,-579.5 1176.48,-579.5"/>
<polygon fill="#757575" stroke="#757575" points="1176.49,-583 1186.49,-579.5 1176.49,-576 1176.49,-583"/>
</g>
<!-- UI/pages/BookWorms/BookwormsTable.tsx&#45;&gt;UI/components/Table/TableOverView.tsx -->
<g id="edge61" class="edge">
<title>UI/pages/BookWorms/BookwormsTable.tsx&#45;&gt;UI/components/Table/TableOverView.tsx</title>
<path fill="none" stroke="#757575" d="M1062.65,-567.97C1104.94,-562.76 1155.05,-556.59 1198.47,-551.25"/>
<polygon fill="#757575" stroke="#757575" points="1198.98,-554.71 1208.48,-550.01 1198.13,-547.76 1198.98,-554.71"/>
</g>
<!-- business/models/Bookworm.ts -->
<g id="node47" class="node">
<title>business/models/Bookworm.ts</title>
<path fill="none" stroke="#cfffac" d="M1395.33,-1029C1395.33,-1029 1210.67,-1029 1210.67,-1029 1206.83,-1029 1203,-1025.17 1203,-1021.33 1203,-1021.33 1203,-1013.67 1203,-1013.67 1203,-1009.83 1206.83,-1006 1210.67,-1006 1210.67,-1006 1395.33,-1006 1395.33,-1006 1399.17,-1006 1403,-1009.83 1403,-1013.67 1403,-1013.67 1403,-1021.33 1403,-1021.33 1403,-1025.17 1399.17,-1029 1395.33,-1029"/>
<text text-anchor="middle" x="1303" y="-1013.8" font-family="Arial" font-size="14.00" fill="#cfffac">business/models/Bookworm.ts</text>
</g>
<!-- UI/pages/BookWorms/BookwormsTable.tsx&#45;&gt;business/models/Bookworm.ts -->
<g id="edge62" class="edge">
<title>UI/pages/BookWorms/BookwormsTable.tsx&#45;&gt;business/models/Bookworm.ts</title>
<path fill="none" stroke="#757575" d="M1100.35,-591.07C1103.79,-593.56 1107.02,-596.36 1110,-599.5 1171.04,-663.7 1084.73,-932.52 1146,-996.5 1158.6,-1009.66 1175.21,-1017.39 1192.9,-1021.62"/>
<polygon fill="#757575" stroke="#757575" points="1192.32,-1025.08 1202.81,-1023.63 1193.7,-1018.21 1192.32,-1025.08"/>
</g>
<!-- UI/pages/Books/BookChartLanguages.tsx&#45;&gt;UI/hooks/useGetBookStatsGenre.tsx -->
<g id="edge63" class="edge">
<title>UI/pages/Books/BookChartLanguages.tsx&#45;&gt;UI/hooks/useGetBookStatsGenre.tsx</title>
<path fill="none" stroke="#757575" d="M1101.57,-335.5C1125.21,-335.5 1149.81,-335.5 1173.35,-335.5"/>
<polygon fill="#757575" stroke="#757575" points="1173.36,-339 1183.36,-335.5 1173.36,-332 1173.36,-339"/>
</g>
<!-- UI/pages/Books/BooksChartGenres.tsx&#45;&gt;UI/hooks/useGetBookStatsLanguage.tsx -->
<g id="edge64" class="edge">
<title>UI/pages/Books/BooksChartGenres.tsx&#45;&gt;UI/hooks/useGetBookStatsLanguage.tsx</title>
<path fill="none" stroke="#757575" d="M1094.42,-294.5C1116.74,-294.5 1140.12,-294.5 1162.8,-294.5"/>
<polygon fill="#757575" stroke="#757575" points="1162.81,-298 1172.81,-294.5 1162.81,-291 1162.81,-298"/>
</g>
<!-- UI/pages/Books/BooksTable.tsx&#45;&gt;UI/components/Table/Pagination.tsx -->
<g id="edge70" class="edge">
<title>UI/pages/Books/BooksTable.tsx&#45;&gt;UI/components/Table/Pagination.tsx</title>
<path fill="none" stroke="#757575" d="M1071.06,-458.33C1085.09,-462.07 1098.58,-467.83 1110,-476.5 1141.71,-500.56 1114.21,-534.56 1146,-558.5 1155.2,-565.43 1165.6,-570.65 1176.56,-574.53"/>
<polygon fill="#757575" stroke="#757575" points="1175.72,-577.93 1186.31,-577.6 1177.83,-571.26 1175.72,-577.93"/>
</g>
<!-- UI/pages/Books/BooksTable.tsx&#45;&gt;UI/components/Table/TableOverView.tsx -->
<g id="edge71" class="edge">
<title>UI/pages/Books/BooksTable.tsx&#45;&gt;UI/components/Table/TableOverView.tsx</title>
<path fill="none" stroke="#757575" d="M1071.15,-462.17C1084.71,-465.42 1098.04,-470.03 1110,-476.5 1131.33,-488.03 1124.63,-506.04 1146,-517.5 1151.53,-520.47 1157.33,-523.07 1163.29,-525.35"/>
<polygon fill="#757575" stroke="#757575" points="1162.2,-528.67 1172.8,-528.67 1164.51,-522.07 1162.2,-528.67"/>
</g>
<!-- UI/pages/Books/BooksTable.tsx&#45;&gt;UI/hooks/useGetGenres.tsx -->
<g id="edge72" class="edge">
<title>UI/pages/Books/BooksTable.tsx&#45;&gt;UI/hooks/useGetGenres.tsx</title>
<path fill="none" stroke="#757575" d="M1062.65,-444.97C1105.66,-439.67 1156.75,-433.38 1200.66,-427.98"/>
<polygon fill="#757575" stroke="#757575" points="1201.28,-431.43 1210.78,-426.73 1200.43,-424.48 1201.28,-431.43"/>
</g>
<!-- UI/pages/Books/BooksTable.tsx&#45;&gt;UI/hooks/useGetLanguages.tsx -->
<g id="edge73" class="edge">
<title>UI/pages/Books/BooksTable.tsx&#45;&gt;UI/hooks/useGetLanguages.tsx</title>
<path fill="none" stroke="#757575" d="M1071.17,-456.5C1108.64,-456.5 1151.25,-456.5 1189.57,-456.5"/>
<polygon fill="#757575" stroke="#757575" points="1189.73,-460 1199.73,-456.5 1189.73,-453 1189.73,-460"/>
</g>
<!-- UI/pages/Books/FilterAndSort.tsx -->
<g id="node51" class="node">
<title>UI/pages/Books/FilterAndSort.tsx</title>
<path fill="none" stroke="#c6c5fe" d="M1402.83,-509C1402.83,-509 1203.17,-509 1203.17,-509 1199.33,-509 1195.5,-505.17 1195.5,-501.33 1195.5,-501.33 1195.5,-493.67 1195.5,-493.67 1195.5,-489.83 1199.33,-486 1203.17,-486 1203.17,-486 1402.83,-486 1402.83,-486 1406.67,-486 1410.5,-489.83 1410.5,-493.67 1410.5,-493.67 1410.5,-501.33 1410.5,-501.33 1410.5,-505.17 1406.67,-509 1402.83,-509"/>
<text text-anchor="middle" x="1303" y="-493.8" font-family="Arial" font-size="14.00" fill="#c6c5fe">UI/pages/Books/FilterAndSort.tsx</text>
</g>
<!-- UI/pages/Books/BooksTable.tsx&#45;&gt;UI/pages/Books/FilterAndSort.tsx -->
<g id="edge74" class="edge">
<title>UI/pages/Books/BooksTable.tsx&#45;&gt;UI/pages/Books/FilterAndSort.tsx</title>
<path fill="none" stroke="#757575" d="M1062.65,-468.03C1104.94,-473.24 1155.05,-479.41 1198.47,-484.75"/>
<polygon fill="#757575" stroke="#757575" points="1198.13,-488.24 1208.48,-485.99 1198.98,-481.29 1198.13,-488.24"/>
</g>
<!-- business/models/Book.ts -->
<g id="node52" class="node">
<title>business/models/Book.ts</title>
<path fill="none" stroke="#cfffac" d="M1378.83,-865C1378.83,-865 1227.17,-865 1227.17,-865 1223.33,-865 1219.5,-861.17 1219.5,-857.33 1219.5,-857.33 1219.5,-849.67 1219.5,-849.67 1219.5,-845.83 1223.33,-842 1227.17,-842 1227.17,-842 1378.83,-842 1378.83,-842 1382.67,-842 1386.5,-845.83 1386.5,-849.67 1386.5,-849.67 1386.5,-857.33 1386.5,-857.33 1386.5,-861.17 1382.67,-865 1378.83,-865"/>
<text text-anchor="middle" x="1303" y="-849.8" font-family="Arial" font-size="14.00" fill="#cfffac">business/models/Book.ts</text>
</g>
<!-- UI/pages/Books/BooksTable.tsx&#45;&gt;business/models/Book.ts -->
<g id="edge75" class="edge">
<title>UI/pages/Books/BooksTable.tsx&#45;&gt;business/models/Book.ts</title>
<path fill="none" stroke="#757575" d="M1071.27,-455.98C1085.6,-459.95 1099.12,-466.41 1110,-476.5 1164.71,-527.25 1115.29,-572.49 1146,-640.5 1181.8,-719.78 1250.26,-798.58 1283.27,-834.03"/>
<polygon fill="#757575" stroke="#757575" points="1281.09,-836.82 1290.5,-841.7 1286.19,-832.02 1281.09,-836.82"/>
</g>
<!-- UI/pages/Books/FilterAndSort.tsx&#45;&gt;UI/components/Controllers/Select.tsx -->
<g id="edge76" class="edge">
<title>UI/pages/Books/FilterAndSort.tsx&#45;&gt;UI/components/Controllers/Select.tsx</title>
<path fill="none" stroke="#757575" d="M1410.51,-505.69C1427.31,-508.54 1444.3,-512.36 1460,-517.5 1517.77,-536.4 1578.36,-574.64 1611.07,-597.04"/>
<polygon fill="#757575" stroke="#757575" points="1609.31,-600.09 1619.53,-602.91 1613.31,-594.34 1609.31,-600.09"/>
</g>
<!-- UI/pages/Books/helpers.ts -->
<g id="node53" class="node">
<title>UI/pages/Books/helpers.ts</title>
<path fill="none" stroke="#cfffac" d="M1715.83,-509C1715.83,-509 1557.17,-509 1557.17,-509 1553.33,-509 1549.5,-505.17 1549.5,-501.33 1549.5,-501.33 1549.5,-493.67 1549.5,-493.67 1549.5,-489.83 1553.33,-486 1557.17,-486 1557.17,-486 1715.83,-486 1715.83,-486 1719.67,-486 1723.5,-489.83 1723.5,-493.67 1723.5,-493.67 1723.5,-501.33 1723.5,-501.33 1723.5,-505.17 1719.67,-509 1715.83,-509"/>
<text text-anchor="middle" x="1636.5" y="-493.8" font-family="Arial" font-size="14.00" fill="#cfffac">UI/pages/Books/helpers.ts</text>
</g>
<!-- UI/pages/Books/FilterAndSort.tsx&#45;&gt;UI/pages/Books/helpers.ts -->
<g id="edge77" class="edge">
<title>UI/pages/Books/FilterAndSort.tsx&#45;&gt;UI/pages/Books/helpers.ts</title>
<path fill="none" stroke="#757575" d="M1410.71,-497.5C1452.07,-497.5 1499.06,-497.5 1539.35,-497.5"/>
<polygon fill="#757575" stroke="#757575" points="1539.44,-501 1549.44,-497.5 1539.44,-494 1539.44,-501"/>
</g>
<!-- business/models/Api.ts -->
<g id="node56" class="node">
<title>business/models/Api.ts</title>
<path fill="none" stroke="#cfffac" d="M1372.83,-988C1372.83,-988 1233.17,-988 1233.17,-988 1229.33,-988 1225.5,-984.17 1225.5,-980.33 1225.5,-980.33 1225.5,-972.67 1225.5,-972.67 1225.5,-968.83 1229.33,-965 1233.17,-965 1233.17,-965 1372.83,-965 1372.83,-965 1376.67,-965 1380.5,-968.83 1380.5,-972.67 1380.5,-972.67 1380.5,-980.33 1380.5,-980.33 1380.5,-984.17 1376.67,-988 1372.83,-988"/>
<text text-anchor="middle" x="1303" y="-972.8" font-family="Arial" font-size="14.00" fill="#cfffac">business/models/Api.ts</text>
</g>
<!-- business/models/Auth.ts -->
<g id="node57" class="node">
<title>business/models/Auth.ts</title>
<path fill="none" stroke="#cfffac" d="M1377.33,-947C1377.33,-947 1228.67,-947 1228.67,-947 1224.83,-947 1221,-943.17 1221,-939.33 1221,-939.33 1221,-931.67 1221,-931.67 1221,-927.83 1224.83,-924 1228.67,-924 1228.67,-924 1377.33,-924 1377.33,-924 1381.17,-924 1385,-927.83 1385,-931.67 1385,-931.67 1385,-939.33 1385,-939.33 1385,-943.17 1381.17,-947 1377.33,-947"/>
<text text-anchor="middle" x="1303" y="-931.8" font-family="Arial" font-size="14.00" fill="#cfffac">business/models/Auth.ts</text>
</g>
<!-- business/models/Genre.ts -->
<g id="node58" class="node">
<title>business/models/Genre.ts</title>
<path fill="none" stroke="#cfffac" d="M1382.33,-1111C1382.33,-1111 1223.67,-1111 1223.67,-1111 1219.83,-1111 1216,-1107.17 1216,-1103.33 1216,-1103.33 1216,-1095.67 1216,-1095.67 1216,-1091.83 1219.83,-1088 1223.67,-1088 1223.67,-1088 1382.33,-1088 1382.33,-1088 1386.17,-1088 1390,-1091.83 1390,-1095.67 1390,-1095.67 1390,-1103.33 1390,-1103.33 1390,-1107.17 1386.17,-1111 1382.33,-1111"/>
<text text-anchor="middle" x="1303" y="-1095.8" font-family="Arial" font-size="14.00" fill="#cfffac">business/models/Genre.ts</text>
</g>
<!-- business/models/Language.ts -->
<g id="node59" class="node">
<title>business/models/Language.ts</title>
<path fill="none" stroke="#cfffac" d="M1393.33,-1152C1393.33,-1152 1212.67,-1152 1212.67,-1152 1208.83,-1152 1205,-1148.17 1205,-1144.33 1205,-1144.33 1205,-1136.67 1205,-1136.67 1205,-1132.83 1208.83,-1129 1212.67,-1129 1212.67,-1129 1393.33,-1129 1393.33,-1129 1397.17,-1129 1401,-1132.83 1401,-1136.67 1401,-1136.67 1401,-1144.33 1401,-1144.33 1401,-1148.17 1397.17,-1152 1393.33,-1152"/>
<text text-anchor="middle" x="1303" y="-1136.8" font-family="Arial" font-size="14.00" fill="#cfffac">business/models/Language.ts</text>
</g>
<!-- business/models/ReviewApi.ts -->
<g id="node60" class="node">
<title>business/models/ReviewApi.ts</title>
<path fill="none" stroke="#cfffac" d="M1395.33,-1193C1395.33,-1193 1210.67,-1193 1210.67,-1193 1206.83,-1193 1203,-1189.17 1203,-1185.33 1203,-1185.33 1203,-1177.67 1203,-1177.67 1203,-1173.83 1206.83,-1170 1210.67,-1170 1210.67,-1170 1395.33,-1170 1395.33,-1170 1399.17,-1170 1403,-1173.83 1403,-1177.67 1403,-1177.67 1403,-1185.33 1403,-1185.33 1403,-1189.17 1399.17,-1193 1395.33,-1193"/>
<text text-anchor="middle" x="1303" y="-1177.8" font-family="Arial" font-size="14.00" fill="#cfffac">business/models/ReviewApi.ts</text>
</g>
<!-- business/overmind/actions.ts -->
<g id="node61" class="node">
<title>business/overmind/actions.ts</title>
<path fill="none" stroke="#c6c5fe" d="M721.83,-1130C721.83,-1130 546.17,-1130 546.17,-1130 542.33,-1130 538.5,-1126.17 538.5,-1122.33 538.5,-1122.33 538.5,-1114.67 538.5,-1114.67 538.5,-1110.83 542.33,-1107 546.17,-1107 546.17,-1107 721.83,-1107 721.83,-1107 725.67,-1107 729.5,-1110.83 729.5,-1114.67 729.5,-1114.67 729.5,-1122.33 729.5,-1122.33 729.5,-1126.17 725.67,-1130 721.83,-1130"/>
<text text-anchor="middle" x="634" y="-1114.8" font-family="Arial" font-size="14.00" fill="#c6c5fe">business/overmind/actions.ts</text>
</g>
<!-- business/overmind/actions.ts&#45;&gt;business/models/ReviewApi.ts -->
<g id="edge94" class="edge">
<title>business/overmind/actions.ts&#45;&gt;business/models/ReviewApi.ts</title>
<path fill="none" stroke="#757575" d="M729.5,-1127.43C851.53,-1138.95 1063.5,-1158.97 1192.44,-1171.15"/>
<polygon fill="#757575" stroke="#757575" points="1192.45,-1174.67 1202.73,-1172.12 1193.11,-1167.7 1192.45,-1174.67"/>
</g>
<!-- business/overmind/effects.ts -->
<g id="node62" class="node">
<title>business/overmind/effects.ts</title>
<path fill="none" stroke="#c6c5fe" d="M1054.33,-1070C1054.33,-1070 881.67,-1070 881.67,-1070 877.83,-1070 874,-1066.17 874,-1062.33 874,-1062.33 874,-1054.67 874,-1054.67 874,-1050.83 877.83,-1047 881.67,-1047 881.67,-1047 1054.33,-1047 1054.33,-1047 1058.17,-1047 1062,-1050.83 1062,-1054.67 1062,-1054.67 1062,-1062.33 1062,-1062.33 1062,-1066.17 1058.17,-1070 1054.33,-1070"/>
<text text-anchor="middle" x="968" y="-1054.8" font-family="Arial" font-size="14.00" fill="#c6c5fe">business/overmind/effects.ts</text>
</g>
<!-- business/overmind/effects.ts&#45;&gt;business/models/User.ts -->
<g id="edge101" class="edge">
<title>business/overmind/effects.ts&#45;&gt;business/models/User.ts</title>
<path fill="none" stroke="#757575" d="M1062.2,-1058.5C1108.72,-1058.5 1164.77,-1058.5 1210.98,-1058.5"/>
<polygon fill="#757575" stroke="#757575" points="1210.99,-1062 1220.99,-1058.5 1210.99,-1055 1210.99,-1062"/>
</g>
<!-- business/overmind/effects.ts&#45;&gt;business/models/Author.ts -->
<g id="edge95" class="edge">
<title>business/overmind/effects.ts&#45;&gt;business/models/Author.ts</title>
<path fill="none" stroke="#757575" d="M1062.34,-1060.36C1079.75,-1056.76 1096.65,-1050.08 1110,-1038.5 1153.35,-1000.89 1102.4,-951.81 1146,-914.5 1162.55,-900.34 1183.94,-893.06 1205.54,-889.75"/>
<polygon fill="#757575" stroke="#757575" points="1205.98,-893.22 1215.46,-888.5 1205.1,-886.28 1205.98,-893.22"/>
</g>
<!-- business/overmind/effects.ts&#45;&gt;business/models/Bookworm.ts -->
<g id="edge97" class="edge">
<title>business/overmind/effects.ts&#45;&gt;business/models/Bookworm.ts</title>
<path fill="none" stroke="#757575" d="M1062.2,-1047.02C1104.6,-1041.8 1154.91,-1035.61 1198.48,-1030.25"/>
<polygon fill="#757575" stroke="#757575" points="1199.03,-1033.7 1208.53,-1029.01 1198.18,-1026.76 1199.03,-1033.7"/>
</g>
<!-- business/overmind/effects.ts&#45;&gt;business/models/Book.ts -->
<g id="edge96" class="edge">
<title>business/overmind/effects.ts&#45;&gt;business/models/Book.ts</title>
<path fill="none" stroke="#757575" d="M1062.23,-1061.21C1079.86,-1057.59 1096.87,-1050.7 1110,-1038.5 1165,-987.42 1090.66,-924.21 1146,-873.5 1163.1,-857.83 1186.02,-850.36 1209.02,-847.37"/>
<polygon fill="#757575" stroke="#757575" points="1209.63,-850.83 1219.22,-846.32 1208.92,-843.86 1209.63,-850.83"/>
</g>
<!-- business/overmind/effects.ts&#45;&gt;business/models/Genre.ts -->
<g id="edge98" class="edge">
<title>business/overmind/effects.ts&#45;&gt;business/models/Genre.ts</title>
<path fill="none" stroke="#757575" d="M1062.2,-1069.98C1107.01,-1075.49 1160.67,-1082.1 1205.86,-1087.66"/>
<polygon fill="#757575" stroke="#757575" points="1205.6,-1091.16 1215.96,-1088.91 1206.46,-1084.21 1205.6,-1091.16"/>
</g>
<!-- business/overmind/effects.ts&#45;&gt;business/models/Language.ts -->
<g id="edge99" class="edge">
<title>business/overmind/effects.ts&#45;&gt;business/models/Language.ts</title>
<path fill="none" stroke="#757575" d="M996.36,-1070.11C1030.69,-1084.19 1091.66,-1107.65 1146,-1120.5 1161.62,-1124.19 1178.3,-1127.25 1194.72,-1129.76"/>
<polygon fill="#757575" stroke="#757575" points="1194.5,-1133.26 1204.9,-1131.25 1195.51,-1126.34 1194.5,-1133.26"/>
</g>
<!-- business/overmind/effects.ts&#45;&gt;business/models/ReviewApi.ts -->
<g id="edge100" class="edge">
<title>business/overmind/effects.ts&#45;&gt;business/models/ReviewApi.ts</title>
<path fill="none" stroke="#757575" d="M1000.92,-1070.02C1030.65,-1081.58 1075.45,-1101.12 1110,-1125.5 1128.49,-1138.55 1125.69,-1151.53 1146,-1161.5 1160.41,-1168.58 1176.43,-1173.46 1192.56,-1176.78"/>
<polygon fill="#757575" stroke="#757575" points="1192.13,-1180.26 1202.61,-1178.65 1193.42,-1173.38 1192.13,-1180.26"/>
</g>
<!-- business/overmind/index.ts -->
<g id="node63" class="node">
<title>business/overmind/index.ts</title>
<path fill="none" stroke="#c6c5fe" d="M433.33,-1070C433.33,-1070 268.67,-1070 268.67,-1070 264.83,-1070 261,-1066.17 261,-1062.33 261,-1062.33 261,-1054.67 261,-1054.67 261,-1050.83 264.83,-1047 268.67,-1047 268.67,-1047 433.33,-1047 433.33,-1047 437.17,-1047 441,-1050.83 441,-1054.67 441,-1054.67 441,-1062.33 441,-1062.33 441,-1066.17 437.17,-1070 433.33,-1070"/>
<text text-anchor="middle" x="351" y="-1054.8" font-family="Arial" font-size="14.00" fill="#c6c5fe">business/overmind/index.ts</text>
</g>
<!-- business/overmind/index.ts&#45;&gt;business/overmind/actions.ts -->
<g id="edge102" class="edge">
<title>business/overmind/index.ts&#45;&gt;business/overmind/actions.ts</title>
<path fill="none" stroke="#757575" d="M406.18,-1070.07C452.73,-1080.01 519.92,-1094.36 569.09,-1104.85"/>
<polygon fill="#757575" stroke="#757575" points="568.48,-1108.3 578.99,-1106.97 569.94,-1101.46 568.48,-1108.3"/>
</g>
<!-- business/overmind/index.ts&#45;&gt;business/overmind/effects.ts -->
<g id="edge103" class="edge">
<title>business/overmind/index.ts&#45;&gt;business/overmind/effects.ts</title>
<path fill="none" stroke="#757575" d="M441.1,-1058.5C553.18,-1058.5 745.27,-1058.5 863.67,-1058.5"/>
<polygon fill="#757575" stroke="#757575" points="863.83,-1062 873.83,-1058.5 863.83,-1055 863.83,-1062"/>
</g>
<!-- business/overmind/state.ts -->
<g id="node64" class="node">
<title>business/overmind/state.ts</title>
<path fill="none" stroke="#c6c5fe" d="M714.83,-1030C714.83,-1030 553.17,-1030 553.17,-1030 549.33,-1030 545.5,-1026.17 545.5,-1022.33 545.5,-1022.33 545.5,-1014.67 545.5,-1014.67 545.5,-1010.83 549.33,-1007 553.17,-1007 553.17,-1007 714.83,-1007 714.83,-1007 718.67,-1007 722.5,-1010.83 722.5,-1014.67 722.5,-1014.67 722.5,-1022.33 722.5,-1022.33 722.5,-1026.17 718.67,-1030 714.83,-1030"/>
<text text-anchor="middle" x="634" y="-1014.8" font-family="Arial" font-size="14.00" fill="#c6c5fe">business/overmind/state.ts</text>
</g>
<!-- business/overmind/index.ts&#45;&gt;business/overmind/state.ts -->
<g id="edge104" class="edge">
<title>business/overmind/index.ts&#45;&gt;business/overmind/state.ts</title>
<path fill="none" stroke="#757575" d="M432.9,-1046.98C466.99,-1042.13 506.82,-1036.46 541.93,-1031.46"/>
<polygon fill="#757575" stroke="#757575" points="542.78,-1034.88 552.18,-1030 541.79,-1027.95 542.78,-1034.88"/>
</g>
<!-- business/overmind/interfaces.ts -->
<g id="node65" class="node">
<title>business/overmind/interfaces.ts</title>
<path fill="none" stroke="#c6c5fe" d="M1063.33,-1029C1063.33,-1029 872.67,-1029 872.67,-1029 868.83,-1029 865,-1025.17 865,-1021.33 865,-1021.33 865,-1013.67 865,-1013.67 865,-1009.83 868.83,-1006 872.67,-1006 872.67,-1006 1063.33,-1006 1063.33,-1006 1067.17,-1006 1071,-1009.83 1071,-1013.67 1071,-1013.67 1071,-1021.33 1071,-1021.33 1071,-1025.17 1067.17,-1029 1063.33,-1029"/>
<text text-anchor="middle" x="968" y="-1013.8" font-family="Arial" font-size="14.00" fill="#c6c5fe">business/overmind/interfaces.ts</text>
</g>
<!-- business/overmind/state.ts&#45;&gt;business/overmind/interfaces.ts -->
<g id="edge113" class="edge">
<title>business/overmind/state.ts&#45;&gt;business/overmind/interfaces.ts</title>
<path fill="none" stroke="#757575" d="M722.66,-1018.24C763.13,-1018.11 811.64,-1017.97 854.74,-1017.84"/>
<polygon fill="#757575" stroke="#757575" points="855.01,-1021.34 865,-1017.81 854.99,-1014.34 855.01,-1021.34"/>
</g>
<!-- business/overmind/interfaces.ts&#45;&gt;business/models/User.ts -->
<g id="edge112" class="edge">
<title>business/overmind/interfaces.ts&#45;&gt;business/models/User.ts</title>
<path fill="none" stroke="#757575" d="M1062.65,-1029.03C1109.06,-1034.74 1164.89,-1041.62 1210.95,-1047.29"/>
<polygon fill="#757575" stroke="#757575" points="1210.57,-1050.77 1220.92,-1048.52 1211.43,-1043.82 1210.57,-1050.77"/>
</g>
<!-- business/overmind/interfaces.ts&#45;&gt;business/models/Author.ts -->
<g id="edge107" class="edge">
<title>business/overmind/interfaces.ts&#45;&gt;business/models/Author.ts</title>
<path fill="none" stroke="#757575" d="M1071.07,-1010.74C1085.09,-1006.49 1098.58,-1000.33 1110,-991.5 1139.89,-968.4 1115.49,-936.77 1146,-914.5 1163.14,-901.99 1184.24,-895.24 1205.32,-891.89"/>
<polygon fill="#757575" stroke="#757575" points="1205.88,-895.35 1215.32,-890.55 1204.95,-888.41 1205.88,-895.35"/>
</g>
<!-- business/overmind/interfaces.ts&#45;&gt;business/models/Bookworm.ts -->
<g id="edge109" class="edge">
<title>business/overmind/interfaces.ts&#45;&gt;business/models/Bookworm.ts</title>
<path fill="none" stroke="#757575" d="M1071.17,-1017.5C1109.61,-1017.5 1153.45,-1017.5 1192.52,-1017.5"/>
<polygon fill="#757575" stroke="#757575" points="1192.88,-1021 1202.88,-1017.5 1192.88,-1014 1192.88,-1021"/>
</g>
<!-- business/overmind/interfaces.ts&#45;&gt;business/models/Book.ts -->
<g id="edge108" class="edge">
<title>business/overmind/interfaces.ts&#45;&gt;business/models/Book.ts</title>
<path fill="none" stroke="#757575" d="M1071.16,-1012.49C1085.42,-1008.04 1098.95,-1001.36 1110,-991.5 1150.91,-955 1104.1,-908.87 1146,-873.5 1163.54,-858.69 1186.38,-851.46 1209.15,-848.41"/>
<polygon fill="#757575" stroke="#757575" points="1209.67,-851.87 1219.24,-847.32 1208.92,-844.92 1209.67,-851.87"/>
</g>
<!-- business/overmind/interfaces.ts&#45;&gt;business/models/Api.ts -->
<g id="edge105" class="edge">
<title>business/overmind/interfaces.ts&#45;&gt;business/models/Api.ts</title>
<path fill="none" stroke="#757575" d="M1062.65,-1005.97C1110.5,-1000.08 1168.35,-992.96 1215.19,-987.19"/>
<polygon fill="#757575" stroke="#757575" points="1215.82,-990.64 1225.31,-985.94 1214.96,-983.69 1215.82,-990.64"/>
</g>
<!-- business/overmind/interfaces.ts&#45;&gt;business/models/Auth.ts -->
<g id="edge106" class="edge">
<title>business/overmind/interfaces.ts&#45;&gt;business/models/Auth.ts</title>
<path fill="none" stroke="#757575" d="M1071.23,-1006.26C1084.71,-1002.61 1097.99,-997.81 1110,-991.5 1130.03,-980.97 1125.69,-965.47 1146,-955.5 1165.87,-945.74 1188.81,-940.16 1210.87,-937.08"/>
<polygon fill="#757575" stroke="#757575" points="1211.43,-940.54 1220.93,-935.84 1210.58,-933.59 1211.43,-940.54"/>
</g>
<!-- business/overmind/interfaces.ts&#45;&gt;business/models/Genre.ts -->
<g id="edge110" class="edge">
<title>business/overmind/interfaces.ts&#45;&gt;business/models/Genre.ts</title>
<path fill="none" stroke="#757575" d="M1071.17,-1023.96C1084.72,-1027.3 1098.05,-1031.99 1110,-1038.5 1131.29,-1050.11 1124.59,-1068.11 1146,-1079.5 1164.13,-1089.14 1185.06,-1094.85 1205.6,-1098.09"/>
<polygon fill="#757575" stroke="#757575" points="1205.24,-1101.58 1215.63,-1099.5 1206.21,-1094.64 1205.24,-1101.58"/>
</g>
<!-- business/overmind/interfaces.ts&#45;&gt;business/models/Language.ts -->
<g id="edge111" class="edge">
<title>business/overmind/interfaces.ts&#45;&gt;business/models/Language.ts</title>
<path fill="none" stroke="#757575" d="M1071.1,-1020.11C1085.12,-1023.94 1098.59,-1029.78 1110,-1038.5 1141.63,-1062.67 1114.13,-1096.66 1146,-1120.5 1160.3,-1131.2 1177.47,-1137.73 1195.11,-1141.54"/>
<polygon fill="#757575" stroke="#757575" points="1194.48,-1144.98 1204.95,-1143.38 1195.76,-1138.1 1194.48,-1144.98"/>
</g>
<!-- business/validators/email.spec.ts -->
<g id="node66" class="node">
<title>business/validators/email.spec.ts</title>
<path fill="none" stroke="#c6c5fe" d="M211.83,-1111C211.83,-1111 12.17,-1111 12.17,-1111 8.33,-1111 4.5,-1107.17 4.5,-1103.33 4.5,-1103.33 4.5,-1095.67 4.5,-1095.67 4.5,-1091.83 8.33,-1088 12.17,-1088 12.17,-1088 211.83,-1088 211.83,-1088 215.67,-1088 219.5,-1091.83 219.5,-1095.67 219.5,-1095.67 219.5,-1103.33 219.5,-1103.33 219.5,-1107.17 215.67,-1111 211.83,-1111"/>
<text text-anchor="middle" x="112" y="-1095.8" font-family="Arial" font-size="14.00" fill="#c6c5fe">business/validators/email.spec.ts</text>
</g>
<!-- business/validators/email.ts -->
<g id="node67" class="node">
<title>business/validators/email.ts</title>
<path fill="none" stroke="#cfffac" d="M434.33,-1111C434.33,-1111 267.67,-1111 267.67,-1111 263.83,-1111 260,-1107.17 260,-1103.33 260,-1103.33 260,-1095.67 260,-1095.67 260,-1091.83 263.83,-1088 267.67,-1088 267.67,-1088 434.33,-1088 434.33,-1088 438.17,-1088 442,-1091.83 442,-1095.67 442,-1095.67 442,-1103.33 442,-1103.33 442,-1107.17 438.17,-1111 434.33,-1111"/>
<text text-anchor="middle" x="351" y="-1095.8" font-family="Arial" font-size="14.00" fill="#cfffac">business/validators/email.ts</text>
</g>
<!-- business/validators/email.spec.ts&#45;&gt;business/validators/email.ts -->
<g id="edge114" class="edge">
<title>business/validators/email.spec.ts&#45;&gt;business/validators/email.ts</title>
<path fill="none" stroke="#757575" d="M219.71,-1099.5C229.65,-1099.5 239.7,-1099.5 249.58,-1099.5"/>
<polygon fill="#757575" stroke="#757575" points="249.81,-1103 259.8,-1099.5 249.8,-1096 249.81,-1103"/>
</g>
<!-- main.tsx -->
<g id="node68" class="node">
<title>main.tsx</title>
<path fill="none" stroke="#c6c5fe" d="M138.33,-326C138.33,-326 85.67,-326 85.67,-326 81.83,-326 78,-322.17 78,-318.33 78,-318.33 78,-310.67 78,-310.67 78,-306.83 81.83,-303 85.67,-303 85.67,-303 138.33,-303 138.33,-303 142.17,-303 146,-306.83 146,-310.67 146,-310.67 146,-318.33 146,-318.33 146,-322.17 142.17,-326 138.33,-326"/>
<text text-anchor="middle" x="112" y="-310.8" font-family="Arial" font-size="14.00" fill="#c6c5fe">main.tsx</text>
</g>
<!-- main.tsx&#45;&gt;App.tsx -->
<g id="edge115" class="edge">
<title>main.tsx&#45;&gt;App.tsx</title>
<path fill="none" stroke="#757575" d="M146.2,-314.5C188.99,-314.5 263.33,-314.5 309.42,-314.5"/>
<polygon fill="#757575" stroke="#757575" points="309.65,-318 319.65,-314.5 309.65,-311 309.65,-318"/>
</g>
<!-- setupTests.ts -->
<g id="node69" class="node">
<title>setupTests.ts</title>
<path fill="none" stroke="#cfffac" d="M151.83,-1152C151.83,-1152 72.17,-1152 72.17,-1152 68.33,-1152 64.5,-1148.17 64.5,-1144.33 64.5,-1144.33 64.5,-1136.67 64.5,-1136.67 64.5,-1132.83 68.33,-1129 72.17,-1129 72.17,-1129 151.83,-1129 151.83,-1129 155.67,-1129 159.5,-1132.83 159.5,-1136.67 159.5,-1136.67 159.5,-1144.33 159.5,-1144.33 159.5,-1148.17 155.67,-1152 151.83,-1152"/>
<text text-anchor="middle" x="112" y="-1136.8" font-family="Arial" font-size="14.00" fill="#cfffac">setupTests.ts</text>
</g>
<!-- vite&#45;env.d.ts -->
<g id="node70" class="node">
<title>vite&#45;env.d.ts</title>
<path fill="none" stroke="#cfffac" d="M148.83,-1193C148.83,-1193 75.17,-1193 75.17,-1193 71.33,-1193 67.5,-1189.17 67.5,-1185.33 67.5,-1185.33 67.5,-1177.67 67.5,-1177.67 67.5,-1173.83 71.33,-1170 75.17,-1170 75.17,-1170 148.83,-1170 148.83,-1170 152.67,-1170 156.5,-1173.83 156.5,-1177.67 156.5,-1177.67 156.5,-1185.33 156.5,-1185.33 156.5,-1189.17 152.67,-1193 148.83,-1193"/>
<text text-anchor="middle" x="112" y="-1177.8" font-family="Arial" font-size="14.00" fill="#cfffac">vite&#45;env.d.ts</text>
</g>
</g>
</svg>
